<svg width="960" height="212" viewBox="0 0 960 212" fill="none" xmlns="http://www.w3.org/2000/svg"><rect x=".5" y=".5" width="959" height="211" rx="3.5" fill="#fff"/><path d="M0 0h960v212H0V0z" fill="#FCEDC1"/><path d="M20 48a4 4 0 014-4h912a4 4 0 014 4v140a4 4 0 01-4 4H24a4 4 0 01-4-4V48z" fill="#FDD4E3"/><path d="M40 92a4 4 0 014-4h872a4 4 0 014 4v76a4 4 0 01-4 4H44a4 4 0 01-4-4V92z" fill="#CDDEEF"/><path d="M60 112a4 4 0 014-4h832a4 4 0 010 8H64a4 4 0 01-4-4zM60 130a4 4 0 014-4h792a4 4 0 010 8H64a4 4 0 01-4-4zM60 148a4 4 0 014-4h232a4 4 0 010 8H64a4 4 0 01-4-4z" fill="#BAD1E9"/><path d="M41.98 72.18a1.2 1.2 0 001.17-1.17 1.2 1.2 0 00-1.17-1.17 1.2 1.2 0 00-1.17 1.17c0 .63.54 1.17 1.17 1.17zM50.08 72.18c2.16 0 4.05-1.89 4.05-4.5 0-2.61-1.9-4.5-4.05-4.5a3.54 3.54 0 00-2.97 1.44V59.4h-1.8V72h1.8v-1.26s.9 1.44 2.97 1.44zm-.36-1.71c-1.44 0-2.61-1.17-2.61-2.79s1.17-2.79 2.6-2.79c1.45 0 2.62 1.17 2.62 2.79s-1.17 2.79-2.61 2.79zM56.2 72H58V59.4h-1.8V72zM64.57 72.18c2.52 0 4.5-1.98 4.5-4.5s-1.98-4.5-4.5-4.5a4.46 4.46 0 00-4.5 4.5c0 2.52 1.98 4.5 4.5 4.5zm0-1.71a2.67 2.67 0 01-2.7-2.79 2.67 2.67 0 012.7-2.79c1.53 0 2.7 1.17 2.7 2.79a2.67 2.67 0 01-2.7 2.79zM75.02 72.18c2.43 0 3.69-1.8 3.69-1.8l-1.26-1.17s-.9 1.26-2.43 1.26a2.67 2.67 0 01-2.7-2.79 2.67 2.67 0 012.7-2.79c1.53 0 2.34 1.17 2.34 1.17l1.26-1.17s-1.17-1.71-3.6-1.71a4.46 4.46 0 00-4.5 4.5c0 2.52 1.98 4.5 4.5 4.5zM80.5 72h1.8v-2.34l1.44-1.53 2.7 3.87h2.07l-3.6-5.13 3.33-3.51h-2.25l-3.7 3.96V59.4h-1.8V72zM88.32 75.33h6.48v-1.62h-6.48v1.62z" fill="#333"/><path d="M94.44 75.33h6.48v-1.62h-6.48v1.62zM105.95 72.18c2.52 0 3.7-1.62 3.7-1.62l-1.09-1.26s-.99 1.17-2.52 1.17a2.66 2.66 0 01-2.7-2.16H110s.1-.36.1-.9c0-2.43-1.8-4.23-4.24-4.23a4.44 4.44 0 00-4.4 4.5c0 2.52 1.97 4.5 4.5 4.5zm-2.6-5.4c.35-1.17 1.16-1.98 2.51-1.98 1.26 0 2.07.81 2.34 1.98h-4.86zM112.16 72h1.8V59.4h-1.8V72zM120.53 72.18c2.52 0 3.69-1.62 3.69-1.62l-1.08-1.26s-1 1.17-2.53 1.17a2.66 2.66 0 01-2.7-2.16h6.67s.09-.36.09-.9c0-2.43-1.8-4.23-4.23-4.23a4.44 4.44 0 00-4.41 4.5c0 2.52 1.97 4.5 4.5 4.5zm-2.61-5.4c.36-1.17 1.16-1.98 2.52-1.98 1.25 0 2.06.81 2.34 1.98h-4.86zM126.64 72h1.8v-4.77c0-1.44.9-2.34 2.07-2.34.99 0 1.8.72 1.8 1.98V72h1.8v-4.77c0-1.44.9-2.34 2.07-2.34.99 0 1.8.72 1.8 1.98V72h1.8v-5.13c0-2.25-1.44-3.69-3.15-3.69-2.16 0-2.97 1.44-2.97 1.44s-.81-1.44-2.7-1.44a2.86 2.86 0 00-2.52 1.44v-1.26h-1.8V72zM146.26 72.18c2.52 0 3.69-1.62 3.69-1.62l-1.08-1.26s-.99 1.17-2.52 1.17a2.66 2.66 0 01-2.7-2.16h6.66s.09-.36.09-.9c0-2.43-1.8-4.23-4.23-4.23a4.44 4.44 0 00-4.41 4.5c0 2.52 1.98 4.5 4.5 4.5zm-2.61-5.4c.36-1.17 1.17-1.98 2.52-1.98 1.26 0 2.07.81 2.34 1.98h-4.86zM152.37 72h1.8v-4.68c0-1.44 1-2.43 2.34-2.43 1.17 0 1.98.81 1.98 2.07V72h1.8v-5.04c0-2.34-1.44-3.78-3.42-3.78-1.8 0-2.7 1.44-2.7 1.44v-1.26h-1.8V72zM166.24 72.18c.8 0 1.35-.27 1.35-.27V70.2s-.45.27-1 .27c-.8 0-1.25-.45-1.25-1.35v-4.05h1.98v-1.71h-1.98v-2.88h-1.62v1.89c0 .72-.27.99-.81.99h-1v1.71h1.63v4.23c0 1.89.99 2.88 2.7 2.88zM169.29 67.5h5.76v-1.62h-5.76v1.62zM178.2 72h1.98V59.4h-1.53c-.45.9-1.08 1.53-2.7 1.71v1.26h2.25V72zM61.98 116.18a1.2 1.2 0 001.17-1.17 1.2 1.2 0 00-1.17-1.17 1.2 1.2 0 00-1.17 1.17c0 .63.54 1.17 1.17 1.17zM70.08 116.18c2.16 0 4.05-1.89 4.05-4.5 0-2.61-1.9-4.5-4.05-4.5-2.07 0-2.97 1.44-2.97 1.44v-5.22h-1.8V116h1.8v-1.26s.9 1.44 2.97 1.44zm-.36-1.71c-1.44 0-2.61-1.17-2.61-2.79s1.17-2.79 2.6-2.79c1.45 0 2.62 1.17 2.62 2.79s-1.17 2.79-2.61 2.79zM76.2 116H78v-12.6h-1.8V116zM84.57 116.18c2.52 0 4.5-1.98 4.5-4.5s-1.98-4.5-4.5-4.5a4.46 4.46 0 00-4.5 4.5c0 2.52 1.98 4.5 4.5 4.5zm0-1.71a2.67 2.67 0 01-2.7-2.79 2.67 2.67 0 012.7-2.79c1.53 0 2.7 1.17 2.7 2.79a2.67 2.67 0 01-2.7 2.79zM95.02 116.18c2.43 0 3.69-1.8 3.69-1.8l-1.26-1.17s-.9 1.26-2.43 1.26a2.67 2.67 0 01-2.7-2.79 2.67 2.67 0 012.7-2.79c1.53 0 2.34 1.17 2.34 1.17l1.26-1.17s-1.17-1.71-3.6-1.71a4.46 4.46 0 00-4.5 4.5c0 2.52 1.98 4.5 4.5 4.5zM100.5 116h1.8v-2.34l1.44-1.53 2.7 3.87h2.07l-3.6-5.13 3.33-3.51h-2.25l-3.7 3.96v-7.92h-1.8V116zM108.32 119.33h6.48v-1.62h-6.48v1.62z" fill="#333"/><path d="M114.44 119.33h6.48v-1.62h-6.48v1.62zM125.95 116.18c2.52 0 3.7-1.62 3.7-1.62l-1.09-1.26s-.99 1.17-2.52 1.17a2.66 2.66 0 01-2.7-2.16H130s.1-.36.1-.9c0-2.43-1.8-4.23-4.24-4.23a4.44 4.44 0 00-4.4 4.5c0 2.52 1.97 4.5 4.5 4.5zm-2.6-5.4c.35-1.17 1.16-1.98 2.51-1.98 1.26 0 2.07.81 2.34 1.98h-4.86zM132.16 116h1.8v-12.6h-1.8V116zM140.53 116.18c2.51 0 3.69-1.62 3.69-1.62l-1.09-1.26s-.98 1.17-2.51 1.17a2.66 2.66 0 01-2.7-2.16h6.66s.08-.36.08-.9c0-2.43-1.8-4.23-4.22-4.23a4.44 4.44 0 00-4.41 4.5c0 2.52 1.97 4.5 4.5 4.5zm-2.62-5.4c.37-1.17 1.18-1.98 2.53-1.98 1.25 0 2.06.81 2.34 1.98h-4.87zM146.64 116h1.8v-4.77c0-1.44.9-2.34 2.07-2.34.99 0 1.8.72 1.8 1.98V116h1.8v-4.77c0-1.44.9-2.34 2.07-2.34.99 0 1.8.72 1.8 1.98V116h1.8v-5.13c0-2.25-1.44-3.69-3.15-3.69-2.16 0-2.97 1.44-2.97 1.44s-.81-1.44-2.7-1.44c-1.8 0-2.52 1.44-2.52 1.44v-1.26h-1.8V116zM166.26 116.18c2.52 0 3.69-1.62 3.69-1.62l-1.08-1.26s-.99 1.17-2.52 1.17a2.66 2.66 0 01-2.7-2.16h6.66s.09-.36.09-.9c0-2.43-1.8-4.23-4.23-4.23a4.44 4.44 0 00-4.41 4.5c0 2.52 1.98 4.5 4.5 4.5zm-2.61-5.4c.36-1.17 1.17-1.98 2.52-1.98 1.26 0 2.07.81 2.34 1.98h-4.86zM172.37 116h1.8v-4.68c0-1.44 1-2.43 2.34-2.43 1.17 0 1.98.81 1.98 2.07V116h1.8v-5.04c0-2.34-1.44-3.78-3.42-3.78-1.8 0-2.7 1.44-2.7 1.44v-1.26h-1.8V116zM186.24 116.18c.8 0 1.35-.27 1.35-.27v-1.71s-.45.27-1 .27c-.8 0-1.25-.45-1.25-1.35v-4.05h1.98v-1.71h-1.98v-2.88h-1.62v1.89c0 .72-.27.99-.81.99h-1v1.71h1.63v4.23c0 1.89.99 2.88 2.7 2.88zM189.29 111.5h5.76v-1.62h-5.76v1.62zM195.95 116h8.46v-1.89h-6.12c1.44-2.79 6.12-3.33 6.12-7.02 0-2.16-1.71-3.87-4.23-3.87-3.33 0-4.05 2.88-4.05 2.88l1.62.72s.54-1.71 2.43-1.71c1.44 0 2.25.81 2.25 1.98 0 3.06-6.48 3.24-6.48 8.91zM21.98 28.18a1.2 1.2 0 001.17-1.17 1.2 1.2 0 00-1.17-1.17 1.2 1.2 0 00-1.17 1.17c0 .63.54 1.17 1.17 1.17zM30.08 28.18c2.16 0 4.05-1.89 4.05-4.5 0-2.61-1.9-4.5-4.05-4.5a3.54 3.54 0 00-2.97 1.44V15.4h-1.8V28h1.8v-1.26s.9 1.44 2.97 1.44zm-.36-1.71c-1.44 0-2.61-1.17-2.61-2.79s1.17-2.79 2.6-2.79c1.45 0 2.62 1.17 2.62 2.79s-1.17 2.79-2.61 2.79zM36.2 28H38V15.4h-1.8V28zM44.57 28.18c2.52 0 4.5-1.98 4.5-4.5s-1.98-4.5-4.5-4.5a4.46 4.46 0 00-4.5 4.5c0 2.52 1.98 4.5 4.5 4.5zm0-1.71a2.67 2.67 0 01-2.7-2.79 2.67 2.67 0 012.7-2.79c1.53 0 2.7 1.17 2.7 2.79a2.67 2.67 0 01-2.7 2.79zM55.02 28.18c2.43 0 3.69-1.8 3.69-1.8l-1.26-1.17s-.9 1.26-2.43 1.26a2.67 2.67 0 01-2.7-2.79 2.67 2.67 0 012.7-2.79c1.53 0 2.34 1.17 2.34 1.17l1.26-1.17s-1.17-1.71-3.6-1.71a4.46 4.46 0 00-4.5 4.5c0 2.52 1.98 4.5 4.5 4.5zM60.5 28h1.8v-2.34l1.44-1.53 2.7 3.87h2.07l-3.6-5.13 3.33-3.51h-2.25l-3.7 3.96V15.4h-1.8V28z" fill="#333"/><rect x=".5" y=".5" width="959" height="211" rx="3.5" stroke="#D5D5D5"/></svg>