<svg width="960" height="282" viewBox="0 0 960 282" fill="none" xmlns="http://www.w3.org/2000/svg"><rect x=".5" y=".5" width="959" height="281" rx="3.5" fill="#fff"/><path d="M31.8 121h1.98v-3.78l1.98-2.16L39.9 121h2.43l-5.22-7.38 4.86-5.22h-2.52l-5.67 6.12v-6.12H31.8V121zM45.66 121.18c1.89 0 2.79-1.44 2.79-1.44V121h1.8v-5.49c0-1.89-1.44-3.33-3.6-3.33-2.25 0-3.42 1.62-3.42 1.62l1.17 1.17s.9-1.17 2.25-1.17c1.08 0 1.8.72 1.8 1.62l-3.15.54c-1.53.27-2.52 1.26-2.52 2.7 0 1.35 1.17 2.52 2.88 2.52zm.36-1.53c-.9 0-1.44-.54-1.44-1.17 0-.54.45-1 1.35-1.17l2.52-.45v.27a2.44 2.44 0 01-2.43 2.52zM52.76 124.78h1.8v-5.04s.9 1.44 2.97 1.44c2.16 0 4.05-1.89 4.05-4.5 0-2.61-1.9-4.5-4.05-4.5-2.07 0-2.97 1.44-2.97 1.44v-1.26h-1.8v12.42zm4.4-5.31c-1.43 0-2.6-1.17-2.6-2.79s1.17-2.79 2.6-2.79c1.45 0 2.62 1.17 2.62 2.79s-1.17 2.79-2.61 2.79zM65.44 121h1.8v-6.93h2.98v-1.71h-7.74v1.71h2.96V121zM75.61 121.18c2.52 0 4.5-1.98 4.5-4.5s-1.98-4.5-4.5-4.5a4.46 4.46 0 00-4.5 4.5c0 2.52 1.98 4.5 4.5 4.5zm0-1.71a2.67 2.67 0 01-2.7-2.79 2.67 2.67 0 012.7-2.79c1.53 0 2.7 1.17 2.7 2.79a2.67 2.67 0 01-2.7 2.79zM87.32 121h1.8v-8.64h-1.8v3.78s-.72.63-1.98.63c-1.08 0-1.8-.72-1.8-1.89v-2.52h-1.8v2.52c0 2.25 1.35 3.6 3.24 3.6 1.44 0 2.34-.63 2.34-.63V121zM91.64 121h1.8v-2.34l1.44-1.53 2.7 3.87h2.07l-3.6-5.13 3.33-3.51h-2.25l-3.69 3.96v-3.96h-1.8V121zM102.98 121.18c1.89 0 2.79-1.44 2.79-1.44V121h1.8v-5.49c0-1.89-1.44-3.33-3.6-3.33-2.25 0-3.42 1.62-3.42 1.62l1.17 1.17s.9-1.17 2.25-1.17c1.08 0 1.8.72 1.8 1.62l-3.15.54c-1.53.27-2.52 1.26-2.52 2.7 0 1.35 1.17 2.52 2.88 2.52zm.36-1.53c-.9 0-1.44-.54-1.44-1.17 0-.54.45-1 1.35-1.17l2.52-.45v.27a2.44 2.44 0 01-2.43 2.52zM109.81 123.34l2.25-3.6-1.62-.9-1.8 3.87 1.17.63zM31.26 148.78h1.8v-5.04s.9 1.44 2.97 1.44c2.16 0 4.05-1.89 4.05-4.5 0-2.61-1.89-4.5-4.05-4.5-2.07 0-2.97 1.44-2.97 1.44v-1.26h-1.8v12.42zm4.41-5.31c-1.44 0-2.61-1.17-2.61-2.79s1.17-2.79 2.61-2.79 2.61 1.17 2.61 2.79-1.17 2.79-2.61 2.79zM44.3 145.18a3.4 3.4 0 002.8-1.44V145h1.8v-5.49c0-1.89-1.45-3.33-3.6-3.33a4.4 4.4 0 00-3.43 1.62l1.17 1.17s.9-1.17 2.25-1.17c1.08 0 1.8.72 1.8 1.62l-3.15.54c-1.53.27-2.52 1.26-2.52 2.7 0 1.35 1.17 2.52 2.88 2.52zm.36-1.53c-.9 0-1.44-.54-1.44-1.17 0-.54.45-1 1.35-1.17l2.52-.45v.27a2.44 2.44 0 01-2.43 2.52zM55.36 145.18c2.43 0 3.7-1.8 3.7-1.8l-1.27-1.17s-.9 1.26-2.43 1.26a2.67 2.67 0 01-2.7-2.79 2.67 2.67 0 012.7-2.79 3 3 0 012.34 1.17l1.26-1.17s-1.17-1.71-3.6-1.71a4.46 4.46 0 00-4.5 4.5c0 2.52 1.98 4.5 4.5 4.5zM60.76 145h11.7v-8.64h-1.8v6.93H67.5v-6.93h-1.8v6.93h-3.15v-6.93h-1.8V145zM74.98 145h1.62l4.5-5.76V145h1.8v-8.64h-1.62l-4.5 5.76v-5.76h-1.8V145zM85.42 148.78h1.8v-5.04s.9 1.44 2.97 1.44c2.16 0 4.05-1.89 4.05-4.5 0-2.61-1.9-4.5-4.05-4.5-2.07 0-2.97 1.44-2.97 1.44v-1.26h-1.8v12.42zm4.4-5.31c-1.43 0-2.6-1.17-2.6-2.79s1.17-2.79 2.6-2.79c1.45 0 2.62 1.17 2.62 2.79s-1.17 2.79-2.61 2.79zM100.17 145.18c2.52 0 3.7-1.62 3.7-1.62l-1.09-1.26s-.99 1.17-2.52 1.17a2.66 2.66 0 01-2.7-2.16h6.66s.1-.36.1-.9c0-2.43-1.8-4.23-4.24-4.23a4.44 4.44 0 00-4.4 4.5c0 2.52 1.97 4.5 4.5 4.5zm-2.6-5.4c.35-1.17 1.16-1.98 2.51-1.98 1.26 0 2.07.81 2.34 1.98h-4.86zM106.28 145h1.8v-3.6h4.23v3.6h1.8v-8.64h-1.8v3.42h-4.23v-3.42h-1.8V145zM116.64 145h1.8v-3.6h4.23v3.6h1.8v-8.64h-1.8v3.42h-4.23v-3.42h-1.8V145zM126.99 145h3.6c2.07 0 3.33-1.26 3.33-2.97 0-1.71-1.26-2.97-3.33-2.97h-1.8v-2.7h-1.8V145zm1.8-1.62v-2.7h1.8c.99 0 1.53.54 1.53 1.35s-.54 1.35-1.53 1.35h-1.8zm6.39 1.62h1.8v-8.64h-1.8V145zM139.5 145h1.63l4.5-5.76V145h1.8v-8.64h-1.62l-4.5 5.76v-5.76h-1.8V145zm3.97-10.08c1.53 0 2.6-1.08 2.6-2.52h-1.34c0 .72-.54 1.26-1.26 1.26s-1.26-.54-1.26-1.26h-1.35c0 1.44 1.08 2.52 2.6 2.52zM31.26 169h4.23c1.89 0 3.06-1.17 3.06-2.52 0-1.62-1.44-2.07-1.44-2.07s1.08-.45 1.08-1.71-1.08-2.34-2.88-2.34h-4.05V169zm1.8-1.62v-2.16h2.34c.81 0 1.26.45 1.26 1.08 0 .63-.45 1.08-1.26 1.08h-2.34zm0-3.6v-1.8h2.16c.72 0 1.08.36 1.08.9s-.36.9-1.08.9h-2.16zM42.77 169.18a3.4 3.4 0 002.8-1.44V169h1.8v-5.49c0-1.89-1.45-3.33-3.6-3.33-2.26 0-3.43 1.62-3.43 1.62l1.17 1.17s.9-1.17 2.25-1.17c1.08 0 1.8.72 1.8 1.62l-3.15.54c-1.53.27-2.52 1.26-2.52 2.7 0 1.35 1.17 2.52 2.88 2.52zm.36-1.53c-.9 0-1.44-.54-1.44-1.17 0-.54.45-1 1.35-1.17l2.52-.45v.27a2.44 2.44 0 01-2.43 2.52zM49.88 172.78h1.8v-5.04s.9 1.44 2.97 1.44c2.16 0 4.05-1.89 4.05-4.5 0-2.61-1.9-4.5-4.05-4.5-2.07 0-2.98 1.44-2.98 1.44v-1.26h-1.8v12.42zm4.4-5.31c-1.44 0-2.6-1.17-2.6-2.79s1.16-2.79 2.6-2.79c1.45 0 2.62 1.17 2.62 2.79s-1.17 2.79-2.62 2.79zM60.67 169h1.62l4.5-5.76V169h1.8v-8.64h-1.62l-4.5 5.76v-5.76h-1.8V169zM73.36 169.18c1.89 0 2.79-1.44 2.79-1.44V169h1.8v-5.49c0-1.89-1.44-3.33-3.6-3.33a4.4 4.4 0 00-3.42 1.62l1.17 1.17s.9-1.17 2.25-1.17c1.08 0 1.8.72 1.8 1.62l-3.15.54c-1.53.27-2.52 1.26-2.52 2.7 0 1.35 1.17 2.52 2.88 2.52zm.36-1.53c-.9 0-1.44-.54-1.44-1.17 0-.54.45-1 1.35-1.17l2.52-.45v.27a2.44 2.44 0 01-2.43 2.52zM80.46 169h1.8v-3.6h4.23v3.6h1.8v-8.64h-1.8v3.42h-4.23v-3.42h-1.8V169zM92.88 169h1.8v-6.93h2.97v-1.71h-7.74v1.71h2.97V169z" fill="#333"/><path fill-rule="evenodd" clip-rule="evenodd" d="M203.34 133.93l6.37 6.36a1 1 0 010 1.42l-6.37 6.36a1 1 0 11-1.41-1.41l4.66-4.66H159v-2h47.59l-4.66-4.66a1 1 0 111.41-1.41zM473.34 133.93l6.37 6.36a1 1 0 010 1.42l-6.37 6.36a1 1 0 11-1.41-1.41l4.66-4.66H429v-2h47.59l-4.66-4.66a1 1 0 111.41-1.41z" fill="#333"/><path d="M490 67h440v168a4 4 0 01-4 4H494a4 4 0 01-4-4V67z" fill="#F8F8F8"/><path fill-rule="evenodd" clip-rule="evenodd" d="M928 69H492v166c0 1.1.9 2 2 2h432a2 2 0 002-2V69zm-438-2v168a4 4 0 004 4h432a4 4 0 004-4V67H490z" fill="#9696A2"/><g filter="url(#filter0_d)"><path d="M510 91a4 4 0 014-4h392a4 4 0 014 4v124a4 4 0 01-4 4H514a4 4 0 01-4-4V91z" fill="#fff"/></g><path d="M530 131h100v68H530v-68zM650 189a10 10 0 1120 0 10 10 0 01-20 0zM724 189a10 10 0 1120 0 10 10 0 01-20 0zM818 189a10 10 0 1120 0 10 10 0 01-20 0z" fill="#FCEDC1"/><path d="M650 135a4 4 0 014-4h152a4 4 0 010 8H654a4 4 0 01-4-4z" fill="#AAA"/><path d="M674 189c0-1.1.9-2 2-2h26a2 2 0 110 4h-26a2 2 0 01-2-2zM650 151c0-1.1.9-2 2-2h236a2 2 0 110 4H652a2 2 0 01-2-2zM650 161c0-1.1.9-2 2-2h116a2 2 0 110 4H652a2 2 0 01-2-2zM748 189c0-1.1.9-2 2-2h46a2 2 0 110 4h-46a2 2 0 01-2-2zM842 189c0-1.1.9-2 2-2h36a2 2 0 110 4h-36a2 2 0 01-2-2z" fill="#D5D5D5"/><path d="M490 47a4 4 0 014-4h432a4 4 0 014 4v20H490V47z" fill="#9696A2"/><path d="M500 56a5 5 0 1110 0 5 5 0 01-10 0zM516 56a5 5 0 1110 0 5 5 0 01-10 0zM532 56a5 5 0 1110 0 5 5 0 01-10 0z" fill="#fff"/><path d="M531.98 115.18a1.2 1.2 0 001.17-1.17 1.2 1.2 0 00-1.17-1.17 1.2 1.2 0 00-1.17 1.17c0 .63.54 1.17 1.17 1.17zM539.17 115.18c2.44 0 3.7-1.8 3.7-1.8l-1.26-1.17s-.9 1.26-2.44 1.26a2.67 2.67 0 01-2.7-2.79 2.67 2.67 0 012.7-2.79 3 3 0 012.35 1.17l1.25-1.17s-1.16-1.71-3.6-1.71a4.46 4.46 0 00-4.5 4.5c0 2.52 1.99 4.5 4.5 4.5zM546.82 115.18c1.89 0 2.79-1.44 2.79-1.44V115h1.8v-5.49c0-1.89-1.44-3.33-3.6-3.33a4.4 4.4 0 00-3.42 1.62l1.17 1.17s.9-1.17 2.25-1.17c1.08 0 1.8.72 1.8 1.62l-3.15.54c-1.53.27-2.52 1.26-2.52 2.7 0 1.35 1.17 2.52 2.88 2.52zm.36-1.53c-.9 0-1.44-.54-1.44-1.17 0-.54.45-1 1.35-1.17l2.52-.45v.27a2.44 2.44 0 01-2.43 2.52zM553.92 115h1.8v-4.41c0-1.53 1.08-2.61 2.34-2.61.36 0 .72.09.72.09v-1.89h-.45c-1.71 0-2.61 1.35-2.61 1.35v-1.17h-1.8V115zM563.74 115.18c2.07 0 2.97-1.44 2.97-1.44V115h1.8v-12.6h-1.8v5.22s-.9-1.44-2.97-1.44c-2.16 0-4.05 1.89-4.05 4.5 0 2.61 1.89 4.5 4.05 4.5zm.36-1.71c-1.44 0-2.61-1.17-2.61-2.79s1.17-2.79 2.6-2.79c1.45 0 2.62 1.17 2.62 2.79s-1.17 2.79-2.61 2.79zM587.98 115.18a1.2 1.2 0 001.17-1.17 1.2 1.2 0 00-1.17-1.17 1.2 1.2 0 00-1.17 1.17c0 .63.54 1.17 1.17 1.17zM595.17 115.18c2.44 0 3.7-1.8 3.7-1.8l-1.26-1.17s-.9 1.26-2.44 1.26a2.67 2.67 0 01-2.7-2.79 2.67 2.67 0 012.7-2.79 3 3 0 012.35 1.17l1.25-1.17s-1.16-1.71-3.6-1.71a4.46 4.46 0 00-4.5 4.5c0 2.52 1.99 4.5 4.5 4.5zM602.82 115.18c1.89 0 2.79-1.44 2.79-1.44V115h1.8v-5.49c0-1.89-1.44-3.33-3.6-3.33a4.4 4.4 0 00-3.42 1.62l1.17 1.17s.9-1.17 2.25-1.17c1.08 0 1.8.72 1.8 1.62l-3.15.54c-1.53.27-2.52 1.26-2.52 2.7 0 1.35 1.17 2.52 2.88 2.52zm.36-1.53c-.9 0-1.44-.54-1.44-1.17 0-.54.45-1 1.35-1.17l2.52-.45v.27a2.44 2.44 0 01-2.43 2.52zM609.92 115h1.8v-4.41c0-1.53 1.08-2.61 2.34-2.61.36 0 .72.09.72.09v-1.89h-.45c-1.71 0-2.61 1.35-2.61 1.35v-1.17h-1.8V115zM619.74 115.18c2.07 0 2.97-1.44 2.97-1.44V115h1.8v-12.6h-1.8v5.22s-.9-1.44-2.97-1.44c-2.16 0-4.05 1.89-4.05 4.5 0 2.61 1.89 4.5 4.05 4.5zm.36-1.71c-1.44 0-2.61-1.17-2.61-2.79s1.17-2.79 2.6-2.79c1.45 0 2.62 1.17 2.62 2.79s-1.17 2.79-2.61 2.79zM626.68 110.5h5.76v-1.62h-5.76v1.62zM634.06 110.5h5.76v-1.62h-5.76v1.62zM645.85 115.18c2.52 0 3.7-1.62 3.7-1.62l-1.09-1.26s-.99 1.17-2.52 1.17a2.66 2.66 0 01-2.7-2.16h6.66s.1-.36.1-.9c0-2.43-1.8-4.23-4.24-4.23a4.44 4.44 0 00-4.4 4.5c0 2.52 1.97 4.5 4.5 4.5zm-2.6-5.4c.35-1.17 1.16-1.98 2.51-1.98 1.26 0 2.07.81 2.34 1.98h-4.86zM650.7 115h2.08l2.25-3.15 2.25 3.15h2.07l-3.24-4.5 2.97-4.14H657l-1.98 2.79-1.98-2.79h-2.07l2.97 4.14-3.24 4.5zM664.39 115.18c.8 0 1.35-.27 1.35-.27v-1.71s-.45.27-1 .27c-.8 0-1.25-.45-1.25-1.35v-4.05h1.98v-1.71h-1.98v-2.88h-1.62v1.89c0 .72-.27.99-.81.99h-1v1.71h1.63v4.23c0 1.89.99 2.88 2.7 2.88zM671.67 115.18c2.53 0 3.7-1.62 3.7-1.62l-1.09-1.26s-.99 1.17-2.51 1.17a2.66 2.66 0 01-2.7-2.16h6.65s.1-.36.1-.9c0-2.43-1.8-4.23-4.24-4.23a4.44 4.44 0 00-4.4 4.5c0 2.52 1.98 4.5 4.5 4.5zm-2.6-5.4c.35-1.17 1.16-1.98 2.51-1.98 1.26 0 2.07.81 2.34 1.98h-4.85zM677.79 115h1.8v-4.68c0-1.44.99-2.43 2.34-2.43 1.17 0 1.98.81 1.98 2.07V115h1.8v-5.04c0-2.34-1.44-3.78-3.42-3.78-1.8 0-2.7 1.44-2.7 1.44v-1.26h-1.8V115zM691.74 115.18c2.07 0 2.97-1.44 2.97-1.44V115h1.8v-12.6h-1.8v5.22s-.9-1.44-2.97-1.44c-2.16 0-4.05 1.89-4.05 4.5 0 2.61 1.89 4.5 4.05 4.5zm.36-1.71c-1.44 0-2.61-1.17-2.61-2.79s1.17-2.79 2.6-2.79c1.45 0 2.62 1.17 2.62 2.79s-1.17 2.79-2.61 2.79zM703.09 115.18c2.52 0 3.69-1.62 3.69-1.62l-1.08-1.26s-1 1.17-2.52 1.17a2.66 2.66 0 01-2.7-2.16h6.66s.09-.36.09-.9c0-2.43-1.8-4.23-4.23-4.23a4.44 4.44 0 00-4.41 4.5c0 2.52 1.98 4.5 4.5 4.5zm-2.61-5.4c.36-1.17 1.17-1.98 2.52-1.98 1.26 0 2.07.81 2.34 1.98h-4.86zM712.71 115.18c2.07 0 2.97-1.44 2.97-1.44V115h1.8v-12.6h-1.8v5.22s-.9-1.44-2.97-1.44c-2.16 0-4.05 1.89-4.05 4.5 0 2.61 1.89 4.5 4.05 4.5zm.36-1.71c-1.44 0-2.61-1.17-2.61-2.79s1.17-2.79 2.61-2.79 2.61 1.17 2.61 2.79-1.17 2.79-2.61 2.79z" fill="#333"/><path d="M219 88h200v136a4 4 0 01-4 4H223a4 4 0 01-4-4V88z" fill="#E8E8E8"/><path d="M219 88h200V58a4 4 0 00-4-4H223a4 4 0 00-4 4v30z" fill="#5757DB"/><path d="M239.81 119.5h5.76v-1.62h-5.76v1.62zM247.2 119.5h5.75v-1.62h-5.76v1.62zM258.99 124.18c2.52 0 3.69-1.62 3.69-1.62l-1.08-1.26s-1 1.17-2.52 1.17a2.66 2.66 0 01-2.7-2.16h6.66s.09-.36.09-.9c0-2.43-1.8-4.23-4.23-4.23a4.44 4.44 0 00-4.41 4.5c0 2.52 1.98 4.5 4.5 4.5zm-2.61-5.4c.36-1.17 1.17-1.98 2.52-1.98 1.26 0 2.07.81 2.34 1.98h-4.86zM263.84 124h2.07l2.25-3.15 2.25 3.15h2.07l-3.24-4.5 2.97-4.14h-2.07l-1.98 2.79-1.98-2.79h-2.07l2.97 4.14-3.24 4.5zM277.52 124.18c.81 0 1.35-.27 1.35-.27v-1.71s-.45.27-.99.27c-.8 0-1.26-.45-1.26-1.35v-4.05h1.98v-1.71h-1.98v-2.88H275v1.89c0 .72-.27.99-.8.99h-1v1.71h1.62v4.23c0 1.89 1 2.88 2.7 2.88zM284.8 124.18c2.53 0 3.7-1.62 3.7-1.62l-1.08-1.26s-1 1.17-2.52 1.17a2.66 2.66 0 01-2.7-2.16h6.66s.09-.36.09-.9c0-2.43-1.8-4.23-4.23-4.23a4.44 4.44 0 00-4.41 4.5c0 2.52 1.98 4.5 4.5 4.5zm-2.6-5.4c.36-1.17 1.17-1.98 2.52-1.98 1.26 0 2.07.81 2.34 1.98h-4.86zM290.92 124h1.8v-4.68c0-1.44.99-2.43 2.34-2.43 1.17 0 1.98.81 1.98 2.07V124h1.8v-5.04c0-2.34-1.44-3.78-3.42-3.78-1.8 0-2.7 1.44-2.7 1.44v-1.26h-1.8V124zM304.87 124.18c2.07 0 2.97-1.44 2.97-1.44V124h1.8v-12.6h-1.8v5.22s-.9-1.44-2.97-1.44c-2.16 0-4.05 1.89-4.05 4.5 0 2.61 1.9 4.5 4.05 4.5zm.36-1.71c-1.44 0-2.6-1.17-2.6-2.79s1.16-2.79 2.6-2.79c1.44 0 2.61 1.17 2.61 2.79s-1.17 2.79-2.6 2.79zM316.22 124.18c2.52 0 3.69-1.62 3.69-1.62l-1.08-1.26s-.99 1.17-2.52 1.17a2.66 2.66 0 01-2.7-2.16h6.66s.09-.36.09-.9c0-2.43-1.8-4.23-4.23-4.23a4.44 4.44 0 00-4.41 4.5c0 2.52 1.98 4.5 4.5 4.5zm-2.61-5.4c.36-1.17 1.17-1.98 2.52-1.98 1.26 0 2.07.81 2.34 1.98h-4.86zM325.84 124.18c2.07 0 2.97-1.44 2.97-1.44V124h1.8v-12.6h-1.8v5.22s-.9-1.44-2.97-1.44c-2.16 0-4.05 1.89-4.05 4.5 0 2.61 1.9 4.5 4.05 4.5zm.36-1.71c-1.44 0-2.6-1.17-2.6-2.79s1.16-2.79 2.6-2.79c1.44 0 2.61 1.17 2.61 2.79s-1.17 2.79-2.6 2.79z" fill="#333"/><path d="M306.22 77.18c2.43 0 3.69-1.8 3.69-1.8l-1.26-1.17s-.9 1.26-2.43 1.26a2.67 2.67 0 01-2.7-2.79 2.67 2.67 0 012.7-2.79c1.53 0 2.34 1.17 2.34 1.17l1.26-1.17s-1.17-1.71-3.6-1.71a4.46 4.46 0 00-4.5 4.5c0 2.52 1.98 4.5 4.5 4.5zM313.86 77.18c1.9 0 2.8-1.44 2.8-1.44V77h1.8v-5.49c0-1.89-1.45-3.33-3.6-3.33-2.26 0-3.43 1.62-3.43 1.62l1.17 1.17s.9-1.17 2.25-1.17c1.08 0 1.8.72 1.8 1.62l-3.15.54c-1.53.27-2.52 1.26-2.52 2.7 0 1.35 1.17 2.52 2.88 2.52zm.36-1.53c-.9 0-1.44-.54-1.44-1.17 0-.54.45-1 1.35-1.17l2.52-.45v.27a2.44 2.44 0 01-2.43 2.52zM320.96 77h1.8v-4.41c0-1.53 1.08-2.61 2.34-2.61.36 0 .72.09.72.09v-1.89h-.45c-1.7 0-2.6 1.35-2.6 1.35v-1.17h-1.8V77zM330.78 77.18c2.07 0 2.97-1.44 2.97-1.44V77h1.8V64.4h-1.8v5.22s-.9-1.44-2.97-1.44c-2.16 0-4.05 1.89-4.05 4.5 0 2.61 1.9 4.5 4.05 4.5zm.36-1.71c-1.44 0-2.6-1.17-2.6-2.79s1.16-2.79 2.6-2.79c1.44 0 2.61 1.17 2.61 2.79s-1.17 2.79-2.6 2.79z" fill="#fff"/><path d="M239.81 159.5h5.76v-1.62h-5.76v1.62zM247.2 159.5h5.75v-1.62h-5.76v1.62zM258.54 164.18c2.07 0 2.97-1.44 2.97-1.44V164h1.8v-12.6h-1.8v5.22s-.9-1.44-2.97-1.44c-2.16 0-4.05 1.89-4.05 4.5 0 2.61 1.89 4.5 4.05 4.5zm.36-1.71c-1.44 0-2.61-1.17-2.61-2.79s1.17-2.79 2.6-2.79c1.45 0 2.62 1.17 2.62 2.79s-1.17 2.79-2.61 2.79zM268.17 164.18c1.9 0 2.8-1.44 2.8-1.44V164h1.8v-5.49c0-1.89-1.45-3.33-3.6-3.33-2.26 0-3.43 1.62-3.43 1.62l1.17 1.17s.9-1.17 2.25-1.17c1.08 0 1.8.72 1.8 1.62l-3.15.54c-1.53.27-2.52 1.26-2.52 2.7 0 1.35 1.17 2.52 2.88 2.52zm.36-1.53c-.9 0-1.44-.54-1.44-1.17 0-.54.45-1 1.35-1.17l2.52-.45v.27a2.44 2.44 0 01-2.43 2.52zM275.28 164h1.8v-4.41c0-1.53 1.08-2.61 2.34-2.61.36 0 .72.09.72.09v-1.89h-.45a3.31 3.31 0 00-2.61 1.35v-1.17h-1.8V164zM281.85 164h1.8v-2.34l1.44-1.53 2.7 3.87h2.07l-3.6-5.13 3.33-3.51h-2.25l-3.69 3.96v-7.92h-1.8V164zM239.81 199.5h5.76v-1.62h-5.76v1.62zM247.2 199.5h5.75v-1.62h-5.76v1.62zM257.37 204h1.98l3.42-8.64h-1.98l-2.43 6.39-2.43-6.39h-1.98l3.42 8.64zM268.16 204.18c2.52 0 3.7-1.62 3.7-1.62l-1.09-1.26s-.99 1.17-2.52 1.17a2.66 2.66 0 01-2.7-2.16h6.66s.1-.36.1-.9c0-2.43-1.8-4.23-4.24-4.23a4.44 4.44 0 00-4.4 4.5c0 2.52 1.97 4.5 4.5 4.5zm-2.6-5.4c.35-1.17 1.16-1.98 2.51-1.98 1.26 0 2.07.81 2.34 1.98h-4.86zM274.27 204h1.8v-4.41c0-1.53 1.08-2.61 2.34-2.61.36 0 .72.09.72.09v-1.89h-.45c-1.7 0-2.6 1.35-2.6 1.35v-1.17h-1.8V204zM284.36 204.18c.81 0 1.35-.27 1.35-.27v-1.71s-.45.27-.99.27c-.81 0-1.26-.45-1.26-1.35v-4.05h1.98v-1.71h-1.98v-2.88h-1.62v1.89c0 .72-.27.99-.81.99h-.99v1.71h1.62v4.23c0 1.89.99 2.88 2.7 2.88zM287.95 204h1.8v-8.64h-1.8V204zm.9-10.26a1.1 1.1 0 001.08-1.08 1.1 1.1 0 00-1.08-1.08 1.1 1.1 0 00-1.08 1.08c0 .63.54 1.08 1.08 1.08zM296.32 204.18c2.43 0 3.7-1.8 3.7-1.8l-1.27-1.17s-.9 1.26-2.43 1.26a2.67 2.67 0 01-2.7-2.79 2.67 2.67 0 012.7-2.79 3 3 0 012.34 1.17l1.26-1.17s-1.17-1.71-3.6-1.71a4.46 4.46 0 00-4.5 4.5c0 2.52 1.98 4.5 4.5 4.5zM303.96 204.18c1.9 0 2.8-1.44 2.8-1.44V204h1.8v-5.49c0-1.89-1.45-3.33-3.6-3.33-2.26 0-3.43 1.62-3.43 1.62l1.17 1.17s.9-1.17 2.25-1.17c1.08 0 1.8.72 1.8 1.62l-3.15.54c-1.53.27-2.52 1.26-2.52 2.7 0 1.35 1.17 2.52 2.88 2.52zm.36-1.53c-.9 0-1.44-.54-1.44-1.17 0-.54.45-1 1.35-1.17l2.52-.45v.27a2.44 2.44 0 01-2.43 2.52zM311.15 204h1.8v-12.6h-1.8V204z" fill="#888"/><path d="M359 118a10 10 0 0110-10h20a10 10 0 110 20h-20a10 10 0 01-10-10z" fill="#5757DB"/><path d="M359 158a10 10 0 0110-10h20a10 10 0 110 20h-20a10 10 0 01-10-10zM359 198a10 10 0 0110-10h20a10 10 0 110 20h-20a10 10 0 01-10-10z" fill="#CDCDCD"/><path d="M381 118a8 8 0 1116 0 8 8 0 01-16 0zM361 158a8 8 0 1116 0 8 8 0 01-16 0zM361 198a8 8 0 1116 0 8 8 0 01-16 0z" fill="#fff"/><path d="M275.8 38h5.22c2.34 0 4.05-1.71 4.05-3.87s-1.71-3.87-4.05-3.87h-3.24v-2.97h6.3V25.4h-8.28V38zm1.98-1.8v-4.14h3.24c1.17 0 2.07.9 2.07 2.07s-.9 2.07-2.07 2.07h-3.24zM291.64 38.18a6.5 6.5 0 006.66-6.48 6.5 6.5 0 00-6.66-6.48c-3.42 0-5.13 2.43-5.13 2.43l1.26 1.26s1.26-1.89 3.87-1.89a4.67 4.67 0 014.6 3.69h-6.22v1.8h6.21a4.52 4.52 0 01-4.59 3.87c-2.6 0-3.96-1.98-3.96-1.98l-1.26 1.26s1.8 2.52 5.22 2.52zM301.1 38h1.97v-9.27l4.6 5.85 4.58-5.85V38h1.99V25.4h-1.8l-4.77 6.12-4.78-6.12h-1.8V38zM316.84 33.5h5.76v-1.62h-5.76v1.62zM328.81 38.18a4.4 4.4 0 004.32-4.41c0-2.43-1.98-4.41-4.14-4.41-1.8 0-2.79 1.35-2.79 1.35.27-1.89 1.35-2.97 3.06-3.33 2.25-.47 3.42-1.08 3.42-1.08l-.9-1.53s-1.26.63-3.15.99c-2.34.45-4.32 2.43-4.32 6.75 0 3.69 1.98 5.67 4.5 5.67zm0-1.71c-1.35 0-2.52-1.17-2.52-2.7 0-1.53 1.17-2.7 2.52-2.7s2.52 1.17 2.52 2.7c0 1.53-1.17 2.7-2.52 2.7zM334.67 38.18c1.7 0 2.97-1.26 2.97-6.3v-.81h3.06V38h1.8v-8.64h-6.66v2.52c0 3.87-.63 4.5-1.62 4.5-.27 0-.63-.09-.63-.09V38s.45.18 1.08.18zM348.97 38.18c2.52 0 4.5-1.98 4.5-4.5s-1.98-4.5-4.5-4.5a4.46 4.46 0 00-4.5 4.5c0 2.52 1.98 4.5 4.5 4.5zm0-1.71a2.67 2.67 0 01-2.7-2.79 2.67 2.67 0 012.7-2.79c1.53 0 2.7 1.17 2.7 2.79a2.67 2.67 0 01-2.7 2.79zM355.45 38h1.8v-2.34l1.44-1.53 2.7 3.87h2.07l-3.6-5.13 3.33-3.51h-2.25l-3.69 3.96v-3.96h-1.8V38z" fill="#333"/><rect x=".5" y=".5" width="959" height="281" rx="3.5" stroke="#D5D5D5"/><defs><filter id="filter0_d" x="500" y="81" width="420" height="152" filterUnits="userSpaceOnUse" color-interpolation-filters="sRGB"><feFlood flood-opacity="0" result="BackgroundImageFix"/><feColorMatrix in="SourceAlpha" values="0 0 0 0 0 0 0 0 0 0 0 0 0 0 0 0 0 0 127 0" result="hardAlpha"/><feOffset dy="4"/><feGaussianBlur stdDeviation="5"/><feColorMatrix values="0 0 0 0 0 0 0 0 0 0 0 0 0 0 0 0 0 0 0.1 0"/><feBlend in2="BackgroundImageFix" result="effect1_dropShadow"/><feBlend in="SourceGraphic" in2="effect1_dropShadow" result="shape"/></filter></defs></svg>