<svg width="960" height="480" viewBox="0 0 960 480" fill="none" xmlns="http://www.w3.org/2000/svg"><rect x=".5" y=".5" width="959" height="479" rx="3.5" fill="#EDF1F8"/><path d="M120 156c0-1.1.9-2 2-2h336a2 2 0 0 1 2 2v40a2 2 0 0 1-2 2H122a2 2 0 0 1-2-2v-40Z" fill="#fff"/><path fill-rule="evenodd" clip-rule="evenodd" d="M458 155H122a1 1 0 0 0-1 1v40a1 1 0 0 0 1 1h336a1 1 0 0 0 1-1v-40a1 1 0 0 0-1-1Zm-336-1a2 2 0 0 0-2 2v40c0 1.1.9 2 2 2h336a2 2 0 0 0 2-2v-40a2 2 0 0 0-2-2H122Z" fill="#DBE4F0"/><path d="M500 156c0-1.1.9-2 2-2h336a2 2 0 0 1 2 2v40a2 2 0 0 1-2 2H502a2 2 0 0 1-2-2v-40Z" fill="#fff"/><path fill-rule="evenodd" clip-rule="evenodd" d="M838 155H502a1 1 0 0 0-1 1v40a1 1 0 0 0 1 1h336a1 1 0 0 0 1-1v-40a1 1 0 0 0-1-1Zm-336-1a2 2 0 0 0-2 2v40c0 1.1.9 2 2 2h336a2 2 0 0 0 2-2v-40a2 2 0 0 0-2-2H502Z" fill="#DBE4F0"/><path d="M120 316c0-1.1.9-2 2-2h336a2 2 0 0 1 2 2v40a2 2 0 0 1-2 2H122a2 2 0 0 1-2-2v-40Z" fill="#fff"/><path fill-rule="evenodd" clip-rule="evenodd" d="M458 315H122a1 1 0 0 0-1 1v40a1 1 0 0 0 1 1h336a1 1 0 0 0 1-1v-40a1 1 0 0 0-1-1Zm-336-1a2 2 0 0 0-2 2v40c0 1.1.9 2 2 2h336a2 2 0 0 0 2-2v-40a2 2 0 0 0-2-2H122Z" fill="#DBE4F0"/><path d="M120 236c0-1.1.9-2 2-2h336a2 2 0 0 1 2 2v40a2 2 0 0 1-2 2H122a2 2 0 0 1-2-2v-40Z" fill="#fff"/><path fill-rule="evenodd" clip-rule="evenodd" d="M458 235H122a1 1 0 0 0-1 1v40a1 1 0 0 0 1 1h336a1 1 0 0 0 1-1v-40a1 1 0 0 0-1-1Zm-336-1a2 2 0 0 0-2 2v40c0 1.1.9 2 2 2h336a2 2 0 0 0 2-2v-40a2 2 0 0 0-2-2H122Z" fill="#DBE4F0"/><path d="M500 236c0-1.1.9-2 2-2h336a2 2 0 0 1 2 2v120a2 2 0 0 1-2 2H502a2 2 0 0 1-2-2V236Z" fill="#fff"/><path fill-rule="evenodd" clip-rule="evenodd" d="M838 235H502a1 1 0 0 0-1 1v120a1 1 0 0 0 1 1h336a1 1 0 0 0 1-1V236a1 1 0 0 0-1-1Zm-336-1a2 2 0 0 0-2 2v120c0 1.1.9 2 2 2h336a2 2 0 0 0 2-2V236a2 2 0 0 0-2-2H502Z" fill="#DBE4F0"/><path d="M141.44 181v-11.38h3.36c1.22 0 2.14.26 2.77.76.63.5.95 1.24.95 2.22a2.52 2.52 0 0 1-1.8 2.47c.66.15 1.2.47 1.6.98.4.5.6 1.08.6 1.75 0 1-.32 1.79-.97 2.36-.65.56-1.55.84-2.7.84h-3.81Zm.96-5.47v4.66h2.88c.82 0 1.47-.21 1.95-.63.49-.42.73-1 .73-1.75 0-.7-.23-1.25-.7-1.66a2.76 2.76 0 0 0-1.9-.62h-2.96Zm0-.8h2.62c.8-.02 1.42-.2 1.86-.57.45-.36.67-.89.67-1.58 0-.73-.23-1.27-.7-1.61-.44-.35-1.13-.53-2.05-.53h-2.4v4.29ZM156.37 181c-.1-.27-.16-.66-.18-1.18a3.3 3.3 0 0 1-1.26 1c-.5.22-1.04.34-1.61.34-.81 0-1.47-.23-1.98-.68a2.22 2.22 0 0 1-.75-1.72c0-.82.34-1.48 1.03-1.95a4.96 4.96 0 0 1 2.86-.72h1.7v-.97c0-.6-.19-1.07-.56-1.42-.37-.35-.91-.52-1.63-.52-.65 0-1.19.17-1.62.5-.42.33-.64.73-.64 1.2h-.93c0-.68.3-1.26.93-1.75a3.6 3.6 0 0 1 2.3-.74c.95 0 1.7.24 2.24.71.54.47.82 1.13.84 1.97v4c0 .82.08 1.43.26 1.84v.09h-1Zm-2.94-.67c.63 0 1.18-.15 1.67-.46.5-.3.86-.7 1.08-1.2v-1.86h-1.67c-.93 0-1.66.18-2.19.51s-.79.78-.79 1.36c0 .47.18.87.53 1.18a2 2 0 0 0 1.37.47ZM160.6 172.55v7.66h3.77v-7.66h.94v7.66h3.72v-7.66h.94V181h-10.3v-8.45h.94ZM175.59 181.16a3.63 3.63 0 0 1-3.3-2 4.64 4.64 0 0 1-.5-2.14v-.34a5 5 0 0 1 .48-2.2c.31-.65.75-1.16 1.32-1.53a3.23 3.23 0 0 1 1.82-.56c1.03 0 1.84.35 2.44 1.06.6.7.9 1.65.9 2.86v.53h-6.02v.18c0 .95.27 1.75.82 2.4.55.63 1.24.95 2.07.95.5 0 .94-.1 1.32-.28.4-.18.74-.47 1.05-.87l.59.44c-.69 1-1.69 1.5-3 1.5Zm-.18-7.97c-.7 0-1.3.25-1.78.77s-.77 1.2-.87 2.08h5.07v-.1a3.1 3.1 0 0 0-.7-1.99 2.16 2.16 0 0 0-1.72-.76ZM190.02 172.55h.94V181h-.94v-6.94l-4.56 6.94h-.93v-8.45h.93v6.95l4.56-6.95ZM198.15 179.73l3.36-7.18h1.15V181h-.93v-6.94l-3.25 6.94h-.67l-3.31-7.1v7.1h-.93v-8.45h1.23l3.35 7.18ZM211.34 172.55V181h-.94v-3.4h-2.63l-2.06 3.4h-1.03l2.13-3.52a2.38 2.38 0 0 1-1.36-.88 2.52 2.52 0 0 1-.47-1.53c0-.76.27-1.38.82-1.84a3.4 3.4 0 0 1 2.23-.68h3.3Zm-5.43 2.54c0 .5.16.9.47 1.22.32.31.76.48 1.32.49h2.7v-3.46H208c-.64 0-1.16.16-1.53.47-.37.31-.56.74-.56 1.28Z" fill="#93ACD2"/><path d="M327.08 58.4V84h-4.43V62h-7.84l-.46 9.89c-.17 3.1-.56 5.5-1.14 7.2a7.24 7.24 0 0 1-2.51 3.73 7.49 7.49 0 0 1-4.43 1.18h-1.13v-3.55l.7-.05c1.02-.1 1.8-.45 2.36-1.08.56-.62.98-1.55 1.26-2.8.3-1.27.5-3.13.62-5.58l.5-12.53h16.5ZM343.9 64.98h4.25V84h-4.25V71.3L336.45 84h-4.26V64.98h4.26v12.7l7.45-12.7ZM367.95 84h-4.27v-6.35c-1.1.26-2.27.4-3.49.4-2.6 0-4.58-.63-5.95-1.87-1.38-1.26-2.06-3.05-2.06-5.38v-5.84h4.27v5.84c0 1.38.3 2.36.92 2.93.62.58 1.56.87 2.82.87 1.15 0 2.31-.14 3.49-.4v-9.22h4.27V84ZM388.6 84h-4.27v-7.68h-7.4V84h-4.27V64.98h4.27v7.93h7.4v-7.93h4.27V84ZM404.53 84a6.63 6.63 0 0 1-.5-1.78 6.65 6.65 0 0 1-4.99 2.13 6.71 6.71 0 0 1-4.67-1.63 5.23 5.23 0 0 1-1.81-4.05c0-2.02.75-3.58 2.25-4.65 1.5-1.1 3.67-1.64 6.46-1.64h2.63v-1.25a3.3 3.3 0 0 0-.83-2.35c-.55-.6-1.39-.9-2.51-.9-.98 0-1.77.25-2.4.74-.62.48-.93 1.1-.93 1.84h-4.27a4.7 4.7 0 0 1 1.04-2.91 6.88 6.88 0 0 1 2.81-2.15 9.97 9.97 0 0 1 4-.77c2.22 0 4 .56 5.32 1.69 1.32 1.11 2 2.68 2.04 4.7v8.59c0 1.7.24 3.07.72 4.1V84h-4.36Zm-4.7-3.08c.85 0 1.64-.2 2.38-.61a4.1 4.1 0 0 0 1.69-1.65v-3.59h-2.3c-1.59 0-2.78.28-3.58.83-.8.55-1.2 1.33-1.2 2.33 0 .82.28 1.48.82 1.97.55.48 1.28.72 2.2.72ZM427.87 64.98V84h-4.25v-6.98h-4L415.58 84h-4.43l4.48-7.68a5.47 5.47 0 0 1-3.64-5.26c0-1.77.68-3.21 2.04-4.34 1.37-1.14 3.22-1.72 5.54-1.74h8.31Zm-11.62 6.19c0 .8.3 1.45.88 1.95.6.5 1.36.74 2.29.74h4.2v-5.49h-3.94c-1.04 0-1.88.27-2.5.8-.62.52-.93 1.19-.93 2ZM453.45 64.98h4.25V84h-4.25V71.3L445.99 84h-4.25V64.98h4.25v12.7l7.46-12.7ZM478.36 84h-4.28v-7.68h-7.4V84h-4.27V64.98h4.27v7.93h7.4v-7.93h4.28V84ZM482.2 74.75c0-3.1.61-5.56 1.83-7.38a5.85 5.85 0 0 1 5.14-2.74c.89 0 1.7.16 2.42.5V57h4.26v8.2a5.83 5.83 0 0 1 2.63-.57c2.18 0 3.89.9 5.12 2.72 1.24 1.8 1.86 4.4 1.86 7.77 0 2.85-.62 5.1-1.86 6.75a6.02 6.02 0 0 1-5.08 2.48c-.97 0-1.87-.17-2.67-.53v7.5h-4.26v-7.43c-.71.3-1.53.46-2.46.46-2.05 0-3.7-.75-4.92-2.27-1.22-1.52-1.88-3.61-1.99-6.27l-.02-1.06Zm18.99 0c0-2.13-.34-3.78-1.02-4.94-.68-1.17-1.64-1.75-2.88-1.75-.53 0-1.01.07-1.44.23v12.48c.38.11.88.17 1.47.17 2.58 0 3.87-2.06 3.87-6.19Zm-14.73.37c0 1.9.31 3.35.95 4.34a3.13 3.13 0 0 0 2.81 1.48c.53 0 .98-.06 1.37-.17V68.23c-.4-.11-.84-.17-1.33-.17-1.22 0-2.16.56-2.82 1.7-.65 1.13-.98 2.91-.98 5.36ZM508.34 74.31c0-1.86.37-3.53 1.11-5.02a8.02 8.02 0 0 1 3.11-3.45 8.72 8.72 0 0 1 4.6-1.21c2.57 0 4.65.83 6.25 2.48 1.6 1.65 2.47 3.84 2.6 6.57l.02 1c0 1.88-.37 3.55-1.1 5.03a7.92 7.92 0 0 1-3.09 3.43 8.79 8.79 0 0 1-4.64 1.21 8.3 8.3 0 0 1-6.45-2.67c-1.6-1.8-2.4-4.18-2.4-7.15v-.22Zm4.28.37c0 1.96.4 3.5 1.2 4.6a3.95 3.95 0 0 0 3.38 1.66c1.44 0 2.56-.56 3.36-1.69.8-1.12 1.21-2.77 1.21-4.94 0-1.92-.41-3.44-1.25-4.57a3.93 3.93 0 0 0-3.35-1.68c-1.4 0-2.5.55-3.32 1.67-.83 1.1-1.24 2.75-1.24 4.95ZM546.3 74.68c0 2.94-.67 5.3-2 7.05a6.43 6.43 0 0 1-5.39 2.62 6.46 6.46 0 0 1-5-2.06v9.02h-4.28V64.98h3.94l.17 1.93a6.27 6.27 0 0 1 5.12-2.28c2.32 0 4.14.87 5.45 2.6 1.32 1.72 1.99 4.12 1.99 7.19v.26Zm-4.26-.37c0-1.9-.38-3.4-1.14-4.51a3.66 3.66 0 0 0-3.24-1.67c-1.74 0-3 .72-3.76 2.16v8.44a3.97 3.97 0 0 0 3.8 2.21c1.36 0 2.42-.54 3.18-1.63.77-1.1 1.16-2.77 1.16-5ZM561.22 78.74l5.62-13.76h5.35V84h-4.27V71.41L562.68 84h-2.9l-5.26-12.66V84h-4.27V64.98h5.38l5.59 13.76ZM588.36 84a6.63 6.63 0 0 1-.5-1.78 6.65 6.65 0 0 1-4.99 2.13 6.71 6.71 0 0 1-4.67-1.63 5.23 5.23 0 0 1-1.81-4.05c0-2.02.75-3.58 2.25-4.65 1.51-1.1 3.67-1.64 6.47-1.64h2.62v-1.25a3.3 3.3 0 0 0-.83-2.35c-.55-.6-1.39-.9-2.51-.9-.98 0-1.77.25-2.4.74-.62.48-.93 1.1-.93 1.84h-4.27a4.7 4.7 0 0 1 1.04-2.91 6.88 6.88 0 0 1 2.81-2.15 9.97 9.97 0 0 1 4-.77c2.22 0 4 .56 5.32 1.69 1.32 1.11 2 2.68 2.04 4.7v8.59c0 1.7.24 3.07.72 4.1V84h-4.36Zm-4.7-3.08c.85 0 1.64-.2 2.38-.61a4.1 4.1 0 0 0 1.69-1.65v-3.59h-2.3c-1.59 0-2.78.28-3.57.83-.8.55-1.2 1.33-1.2 2.33 0 .82.27 1.48.8 1.97.56.48 1.3.72 2.2.72ZM596.64 64.98h4.27V80.6h7.42v-15.6h4.27v15.6h2.58l-.35 9.05h-3.88V84h-14.31V64.98ZM630.07 64.98h4.26V84h-4.26V71.3L622.62 84h-4.25V64.98h4.25v12.7l7.45-12.7ZM654.1 64.98V84h-4.25v-6.98h-4L641.8 84h-4.43l4.48-7.68a5.46 5.46 0 0 1-3.64-5.26c0-1.77.68-3.21 2.04-4.34 1.37-1.14 3.22-1.72 5.54-1.74h8.31Zm-11.62 6.19c0 .8.3 1.45.88 1.95.6.5 1.36.74 2.29.74h4.2v-5.49h-3.94c-1.04 0-1.88.27-2.5.8-.62.52-.93 1.19-.93 2Z" fill="#333"/><path d="M127.43 135.05h1.31V145h-1.3v-7.67l-4.91 7.67h-1.32v-9.95h1.32v7.67l4.9-7.67ZM135.48 143.32l2.51-5.72h1.58v7.4h-1.26v-5.38l-2.4 5.38h-.87l-2.44-5.5v5.5h-1.26v-7.4h1.63l2.5 5.72ZM147.54 137.6v7.4h-1.27v-2.88h-1.9l-1.75 2.88h-1.37l1.86-3.07a2.24 2.24 0 0 1-1.1-.8 2.19 2.19 0 0 1-.37-1.27 2 2 0 0 1 .76-1.63c.5-.41 1.18-.62 2.03-.63h3.11Zm-4.63 2.27c0 .36.13.66.37.88.25.22.58.33.98.33h2.01v-2.45h-1.82c-.47 0-.84.12-1.12.35a1.1 1.1 0 0 0-.42.9ZM507.33 136.13h-4.8V145h-1.32v-9.95h6.12v1.08ZM507.41 141.23c0-.72.14-1.37.42-1.95.3-.58.69-1.03 1.2-1.34.5-.32 1.09-.47 1.74-.47 1 0 1.82.34 2.44 1.04.62.7.93 1.63.93 2.78v.1a4.4 4.4 0 0 1-.41 1.94 3.1 3.1 0 0 1-2.95 1.8c-1 0-1.81-.34-2.44-1.04a4.01 4.01 0 0 1-.93-2.77v-.09Zm1.27.15c0 .82.2 1.48.57 1.98.38.5.9.74 1.53.74.64 0 1.15-.25 1.53-.75.38-.5.57-1.21.57-2.12 0-.8-.2-1.46-.58-1.97-.38-.5-.9-.75-1.53-.75s-1.13.24-1.51.74c-.39.5-.58 1.2-.58 2.13ZM522.26 141.38c0 1.13-.26 2.04-.77 2.72a2.47 2.47 0 0 1-2.1 1.04c-.9 0-1.6-.29-2.12-.86v3.56h-1.26V137.6h1.15l.07.82a2.6 2.6 0 0 1 2.14-.95c.9 0 1.6.33 2.1 1 .53.67.79 1.6.79 2.8v.11Zm-1.27-.14c0-.83-.17-1.5-.53-1.98a1.72 1.72 0 0 0-1.46-.72c-.77 0-1.34.34-1.73 1.02v3.53c.38.68.96 1.01 1.74 1.01.6 0 1.09-.23 1.44-.71.36-.49.54-1.2.54-2.15ZM523.82 141.23c0-.72.14-1.37.42-1.95.29-.58.68-1.03 1.19-1.34.51-.32 1.1-.47 1.74-.47 1.01 0 1.82.34 2.44 1.04.63.7.94 1.63.94 2.78v.1a4.4 4.4 0 0 1-.42 1.94 3.11 3.11 0 0 1-1.18 1.33c-.51.32-1.1.48-1.76.48-1 0-1.82-.35-2.44-1.05a4.01 4.01 0 0 1-.93-2.77v-.09Zm1.27.15c0 .82.19 1.48.56 1.98.39.5.9.74 1.54.74s1.15-.25 1.53-.75c.38-.5.56-1.21.56-2.12 0-.8-.19-1.46-.58-1.97-.38-.5-.89-.75-1.53-.75-.62 0-1.13.24-1.5.74-.4.5-.58 1.2-.58 2.13ZM531.86 143.97l.44-.54c.5-.64.77-1.6.84-2.87l.12-2.96h4.76v6.37h.95v3.2h-1.26V145h-5.16v2.17h-1.27v-3.2h.58Zm1.5 0h3.4v-5.2h-2.28l-.08 1.77a6.12 6.12 0 0 1-1.04 3.43ZM126.78 300.4h-4.31v3.53h5V305h-6.31v-9.95h6.25v1.08h-4.94v3.2h4.31v1.07ZM131.83 301.29h-3.34v-1.03h3.34v1.03ZM134.53 297.6l.04.82a2.73 2.73 0 0 1 2.2-.95c1.03 0 1.73.4 2.1 1.19.25-.36.57-.65.96-.87.4-.21.86-.32 1.4-.32 1.63 0 2.45.86 2.48 2.57V305h-1.27v-4.88c0-.53-.12-.92-.36-1.18-.24-.27-.65-.4-1.22-.4-.47 0-.86.14-1.17.42a1.7 1.7 0 0 0-.53 1.13V305h-1.28v-4.85c0-1.07-.52-1.61-1.58-1.61-.83 0-1.4.35-1.7 1.06v5.4h-1.26v-7.4h1.2ZM150.47 305c-.07-.15-.13-.4-.18-.78-.59.61-1.29.92-2.1.92-.73 0-1.33-.2-1.8-.62-.47-.41-.7-.94-.7-1.57 0-.77.3-1.37.88-1.8a4.14 4.14 0 0 1 2.47-.63h1.23v-.58c0-.45-.13-.8-.4-1.06-.26-.26-.65-.4-1.17-.4-.45 0-.82.12-1.13.35-.3.23-.46.5-.46.82h-1.27c0-.36.13-.72.39-1.06a2.7 2.7 0 0 1 1.07-.82c.45-.2.94-.3 1.48-.3.85 0 1.52.21 2 .64.48.42.74 1 .75 1.76v3.4c0 .68.1 1.22.26 1.62v.11h-1.32Zm-2.1-.96c.4 0 .77-.1 1.13-.31.35-.2.61-.47.77-.8v-1.52h-1c-1.54 0-2.32.45-2.32 1.36 0 .4.14.7.4.93.27.22.6.34 1.02.34ZM155.17 305h-1.26v-7.4h1.26v7.4Zm-1.37-9.36c0-.2.06-.38.19-.52s.31-.21.56-.21c.24 0 .43.07.56.21.13.14.2.32.2.52s-.07.38-.2.51c-.13.14-.32.2-.56.2-.25 0-.43-.06-.56-.2a.73.73 0 0 1-.19-.5ZM158.85 305h-1.26v-10.5h1.26V305ZM130.11 227.44h-1.3V225h-7.15v2.45h-1.31v-3.52h.8a5.2 5.2 0 0 0 1.02-1.94c.26-.82.42-1.71.48-2.68l.22-4.26h5.95v8.88h1.3l-.01 3.51Zm-7.46-3.51h4.86v-7.8h-3.37l-.15 2.92a12.32 12.32 0 0 1-.46 2.93c-.24.8-.53 1.46-.88 1.95ZM136.33 225c-.07-.15-.13-.4-.18-.78-.59.61-1.29.92-2.1.92-.73 0-1.33-.2-1.8-.62-.47-.41-.7-.94-.7-1.57 0-.77.3-1.37.88-1.8a4.15 4.15 0 0 1 2.47-.63h1.23v-.59c0-.44-.13-.79-.4-1.05-.26-.26-.65-.4-1.16-.4-.45 0-.83.12-1.14.35-.3.22-.46.5-.46.82h-1.27c0-.37.13-.72.4-1.06a2.7 2.7 0 0 1 1.06-.82c.45-.2.94-.3 1.48-.3.86 0 1.52.21 2 .64.49.42.74 1 .76 1.76v3.4c0 .68.08 1.22.26 1.62v.11h-1.33Zm-2.1-.96c.4 0 .78-.1 1.13-.31.36-.2.61-.47.77-.8v-1.52h-.99c-1.55 0-2.32.46-2.32 1.36 0 .4.13.7.4.93.26.22.6.34 1.01.34ZM145.05 218.63h-2.49V225h-1.26v-6.37h-2.43v-1.03h6.18v1.03ZM151.01 225c-.07-.15-.13-.4-.17-.78-.6.61-1.3.92-2.1.92-.74 0-1.34-.2-1.8-.62-.47-.41-.7-.94-.7-1.57 0-.77.29-1.37.87-1.8a4.14 4.14 0 0 1 2.47-.63h1.24v-.59c0-.44-.14-.79-.4-1.05s-.66-.4-1.17-.4c-.45 0-.83.12-1.13.35-.31.22-.46.5-.46.82h-1.27c0-.37.13-.72.39-1.06a2.7 2.7 0 0 1 1.06-.82c.45-.2.95-.3 1.48-.3.86 0 1.53.21 2 .64.5.42.74 1 .76 1.76v3.4c0 .68.09 1.22.26 1.62v.11h-1.33Zm-2.1-.96c.4 0 .78-.1 1.13-.31.36-.2.62-.47.78-.8v-1.52h-1c-1.54 0-2.32.46-2.32 1.36 0 .4.13.7.4.93.26.22.6.34 1.01.34ZM164.34 221.38c0 1.13-.25 2.04-.77 2.72a2.47 2.47 0 0 1-2.1 1.04c-.89 0-1.6-.29-2.11-.86v3.56h-1.27V217.6h1.16l.06.82a2.6 2.6 0 0 1 2.15-.95c.89 0 1.59.33 2.1 1 .52.67.78 1.6.78 2.8v.11Zm-1.26-.14c0-.83-.18-1.5-.53-1.98a1.72 1.72 0 0 0-1.47-.72c-.76 0-1.34.34-1.72 1.02v3.53c.38.68.96 1.01 1.74 1.01.6 0 1.08-.23 1.44-.71.36-.49.54-1.2.54-2.15ZM165.9 221.23c0-.72.14-1.37.43-1.95.28-.58.68-1.03 1.18-1.34.52-.32 1.1-.47 1.75-.47 1 0 1.82.34 2.44 1.04.62.7.94 1.63.94 2.78v.1a4.4 4.4 0 0 1-.42 1.94 3.11 3.11 0 0 1-1.19 1.33c-.5.32-1.1.48-1.76.48-1 0-1.81-.35-2.44-1.05a4.02 4.02 0 0 1-.93-2.77v-.09Zm1.27.15c0 .82.2 1.48.57 1.98.38.5.9.74 1.53.74.64 0 1.16-.25 1.53-.75.38-.5.57-1.21.57-2.12 0-.8-.2-1.46-.58-1.97-.38-.5-.9-.75-1.53-.75s-1.13.24-1.51.74c-.38.5-.58 1.2-.58 2.13ZM180.25 221.79h-.89V225h-1.26v-3.21h-.9l-2.06 3.21h-1.6l2.64-3.83-2.39-3.57h1.53l1.9 3.07h.88v-3.07h1.26v3.07h.86l1.92-3.07h1.54l-2.4 3.58 2.64 3.82h-1.6l-2.07-3.21ZM185.29 223.97l.44-.54c.49-.64.77-1.6.84-2.87l.11-2.96h4.77v6.37h.95v3.2h-1.27V225h-5.16v2.17h-1.26v-3.2h.58Zm1.5 0h3.4v-5.2h-2.28l-.08 1.77a6.12 6.12 0 0 1-1.05 3.43ZM197.15 225.14c-1 0-1.82-.33-2.45-.99a3.68 3.68 0 0 1-.94-2.64v-.24c0-.73.14-1.38.41-1.96a3.3 3.3 0 0 1 1.18-1.35c.5-.33 1.05-.5 1.64-.5.96 0 1.71.32 2.24.96.54.63.8 1.54.8 2.72v.52h-5c.01.73.22 1.32.63 1.78.4.44.93.66 1.56.66.44 0 .82-.09 1.13-.27.31-.18.58-.42.81-.72l.78.6a3.1 3.1 0 0 1-2.8 1.43Zm-.16-6.63c-.51 0-.94.18-1.28.56-.35.37-.56.89-.65 1.56h3.7v-.1a2.4 2.4 0 0 0-.51-1.5 1.59 1.59 0 0 0-1.26-.52ZM207.82 225h-1.26v-3.16h-3.4V225h-1.27v-7.4h1.27v3.21h3.4v-3.2h1.26V225ZM214.93 217.6h1.26v7.4h-1.26v-5.4l-3.41 5.4h-1.27v-7.4h1.27v5.4l3.4-5.4ZM224.16 217.6v7.4h-1.28v-2.88h-1.9l-1.75 2.88h-1.36l1.86-3.07a2.25 2.25 0 0 1-1.1-.8 2.2 2.2 0 0 1-.37-1.27 2 2 0 0 1 .75-1.63c.51-.41 1.19-.62 2.04-.63h3.1Zm-4.63 2.27c0 .36.12.66.37.88.24.22.57.33.97.33h2.01v-2.45h-1.81c-.47 0-.85.12-1.13.35a1.1 1.1 0 0 0-.41.9ZM508.81 220.34c0 .98-.16 1.83-.5 2.56-.32.72-.78 1.28-1.38 1.66-.6.38-1.3.58-2.11.58-.78 0-1.48-.2-2.09-.58a3.88 3.88 0 0 1-1.41-1.65 5.97 5.97 0 0 1-.51-2.48v-.72c0-.95.16-1.8.5-2.53.33-.74.8-1.3 1.4-1.68.62-.4 1.31-.6 2.1-.6a3.69 3.69 0 0 1 3.51 2.26c.33.73.5 1.58.5 2.56v.62Zm-1.3-.64c0-1.18-.24-2.08-.71-2.71a2.34 2.34 0 0 0-2-.95c-.82 0-1.48.31-1.96.95-.47.63-.71 1.5-.73 2.62v.73c0 1.15.24 2.05.72 2.7.48.66 1.15.98 1.99.98.85 0 1.5-.3 1.97-.92.46-.62.7-1.5.72-2.66v-.74ZM517.58 224.1c.45 0 .85-.13 1.18-.4.34-.28.53-.62.57-1.03h1.2a2.3 2.3 0 0 1-.45 1.2c-.26.4-.63.7-1.08.92-.44.23-.92.35-1.42.35-1 0-1.8-.34-2.4-1-.6-.68-.9-1.6-.9-2.77v-.21c0-.72.14-1.36.4-1.92a3.03 3.03 0 0 1 2.9-1.77c.82 0 1.51.24 2.06.74s.84 1.14.88 1.94h-1.2a1.73 1.73 0 0 0-1.75-1.65c-.64 0-1.14.24-1.5.7a3.26 3.26 0 0 0-.52 2v.24c0 .86.18 1.51.53 1.97.35.46.85.7 1.5.7ZM525.3 225.14c-1.01 0-1.83-.33-2.45-.99a3.68 3.68 0 0 1-.95-2.64v-.24c0-.73.14-1.38.42-1.96.28-.58.67-1.03 1.17-1.35.51-.33 1.06-.5 1.64-.5.97 0 1.71.32 2.25.96.53.63.8 1.54.8 2.72v.52h-5.01c.01.73.23 1.32.63 1.77.41.45.93.67 1.56.67.45 0 .82-.09 1.13-.27.31-.18.59-.42.82-.73l.77.6a3.1 3.1 0 0 1-2.79 1.44Zm-.16-6.63c-.51 0-.94.18-1.29.56-.35.37-.56.88-.64 1.55h3.7v-.1a2.39 2.39 0 0 0-.52-1.48 1.58 1.58 0 0 0-1.25-.53ZM533.17 218.03c.93 0 1.68.3 2.23.93.56.62.84 1.44.84 2.46v.11c0 .7-.13 1.32-.4 1.88-.27.54-.66.97-1.16 1.28-.5.3-1.08.45-1.74.45-1 0-1.8-.33-2.4-1-.6-.66-.9-1.55-.9-2.67v-.61c0-1.56.28-2.8.85-3.7a3.63 3.63 0 0 1 2.56-1.68 3.4 3.4 0 0 0 1.3-.42.8.8 0 0 0 .33-.68h1.04c0 .57-.13 1.02-.4 1.34-.25.31-.66.54-1.22.67l-.95.21c-.75.18-1.31.48-1.7.9-.37.43-.61.99-.72 1.69a3.12 3.12 0 0 1 2.44-1.16Zm-.24 1.03c-.62 0-1.11.22-1.48.63-.36.42-.55 1-.55 1.73v.11c0 .8.19 1.43.55 1.89.37.46.87.69 1.5.69a1.8 1.8 0 0 0 1.48-.7c.37-.46.55-1.14.55-2.03 0-.7-.19-1.26-.56-1.68a1.87 1.87 0 0 0-1.5-.63ZM541.01 225.14c-1 0-1.81-.33-2.44-.99a3.68 3.68 0 0 1-.95-2.64v-.24c0-.73.14-1.38.42-1.96.28-.58.68-1.03 1.18-1.35.5-.33 1.05-.5 1.64-.5.96 0 1.7.32 2.24.96.53.63.8 1.54.8 2.72v.52h-5.01c.02.73.23 1.32.63 1.77.41.45.93.67 1.56.67.45 0 .83-.09 1.14-.27.3-.18.58-.42.81-.73l.77.6a3.1 3.1 0 0 1-2.79 1.44Zm-.15-6.63c-.51 0-.94.18-1.29.56a2.7 2.7 0 0 0-.64 1.55h3.7v-.1a2.39 2.39 0 0 0-.51-1.48 1.58 1.58 0 0 0-1.26-.53Z" fill="#4B75B4"/><path d="M521.44 181v-11.38h3.36c1.22 0 2.14.26 2.77.76.63.5.95 1.24.95 2.22a2.52 2.52 0 0 1-1.8 2.47c.66.15 1.2.47 1.6.98.4.5.6 1.08.6 1.75 0 1-.32 1.79-.97 2.36-.65.56-1.55.84-2.7.84h-3.81Zm.96-5.47v4.66h2.88c.82 0 1.48-.21 1.95-.63.49-.42.73-1 .73-1.75 0-.7-.23-1.25-.7-1.66a2.76 2.76 0 0 0-1.9-.62h-2.96Zm0-.8h2.62c.8-.02 1.43-.2 1.86-.57.45-.36.67-.89.67-1.58 0-.73-.23-1.27-.7-1.61-.44-.35-1.13-.53-2.05-.53h-2.4v4.29ZM532.06 175.62h2.44c.63 0 1.17.11 1.64.34.48.22.83.54 1.07.94.25.4.37.87.37 1.4a2.5 2.5 0 0 1-.85 1.97c-.55.48-1.3.73-2.26.73h-3.34v-8.45h.93v3.07Zm0 .8v3.8h2.42c.68 0 1.2-.18 1.58-.52.39-.33.58-.8.58-1.39 0-.56-.19-1.01-.56-1.36a2.18 2.18 0 0 0-1.53-.54h-2.49Zm8.39 4.58h-.94v-8.45h.94V181ZM546.45 173.1c1.08 0 1.95.36 2.61 1.06.67.7 1 1.63 1 2.78v.2c0 .77-.15 1.46-.46 2.08-.3.6-.74 1.09-1.31 1.43-.57.34-1.22.5-1.96.5a3.55 3.55 0 0 1-2.71-1.1 4.22 4.22 0 0 1-1.03-2.98v-.75c0-1.75.33-3.15 1-4.2a4 4 0 0 1 2.84-1.87c.78-.13 1.32-.3 1.63-.5a1 1 0 0 0 .48-.88h.8c0 .44-.09.8-.27 1.08-.18.29-.46.52-.82.7a6.6 6.6 0 0 1-1.67.44c-.86.13-1.55.5-2.08 1.1-.52.6-.86 1.39-1.02 2.39a3.58 3.58 0 0 1 2.97-1.47Zm-2.93 3.85v.2c0 .95.26 1.73.78 2.33.51.59 1.19.89 2.03.89.84 0 1.52-.3 2.03-.9.51-.6.76-1.4.76-2.38v-.2c0-.88-.25-1.6-.78-2.16a2.64 2.64 0 0 0-2.03-.83c-.84 0-1.51.28-2.02.85-.51.56-.77 1.3-.77 2.2ZM555.13 181.16a3.63 3.63 0 0 1-3.3-2 4.64 4.64 0 0 1-.49-2.14v-.34c0-.81.16-1.55.47-2.2.32-.65.76-1.16 1.32-1.53a3.23 3.23 0 0 1 1.83-.56c1.03 0 1.84.35 2.44 1.06.6.7.9 1.65.9 2.86v.53h-6.03v.18c0 .95.28 1.75.82 2.4.56.63 1.25.95 2.08.95.5 0 .94-.1 1.32-.28.39-.18.74-.47 1.05-.87l.59.44c-.7 1-1.69 1.5-3 1.5Zm-.17-7.97c-.7 0-1.3.25-1.78.77s-.77 1.2-.88 2.08h5.08v-.1a3.1 3.1 0 0 0-.7-1.99 2.16 2.16 0 0 0-1.72-.76ZM566.92 176.86c0 1.32-.29 2.36-.87 3.14a2.79 2.79 0 0 1-2.35 1.16c-1.15 0-2.04-.41-2.65-1.22v4.31h-.93v-11.7h.86l.05 1.2a3 3 0 0 1 2.65-1.36c1.01 0 1.8.38 2.38 1.15.57.77.86 1.83.86 3.19v.13Zm-.94-.17c0-1.07-.22-1.92-.66-2.55a2.14 2.14 0 0 0-1.85-.94 2.6 2.6 0 0 0-1.48.42 2.6 2.6 0 0 0-.94 1.2v4.06c.22.48.54.85.96 1.1.41.26.9.39 1.47.39.8 0 1.4-.31 1.84-.94.44-.63.66-1.54.66-2.74ZM574.55 172.55h.94V181h-.94v-6.94L570 181h-.93v-8.45h.93v6.95l4.56-6.95ZM584.07 173.34h-3.08V181h-.94v-7.66h-2.96v-.8h6.98v.8ZM588.26 181.16a3.63 3.63 0 0 1-3.3-2 4.64 4.64 0 0 1-.5-2.14v-.34a5 5 0 0 1 .48-2.2c.31-.65.75-1.16 1.32-1.53a3.23 3.23 0 0 1 1.83-.56c1.02 0 1.83.35 2.43 1.06.6.7.91 1.65.91 2.86v.53h-6.03v.18c0 .95.27 1.75.82 2.4.55.63 1.24.95 2.08.95.5 0 .94-.1 1.32-.28.38-.18.73-.47 1.04-.87l.59.44c-.69 1-1.68 1.5-3 1.5Zm-.17-7.97c-.7 0-1.3.25-1.79.77-.47.52-.77 1.2-.87 2.08h5.07v-.1a3.1 3.1 0 0 0-.7-1.99 2.16 2.16 0 0 0-1.71-.76ZM597.24 181v-8.45h3.1c1.08 0 1.9.19 2.47.57.58.38.86.94.86 1.69 0 .42-.13.8-.38 1.13-.26.33-.63.56-1.12.72.55.1 1 .34 1.33.7.34.38.5.8.5 1.3 0 .74-.27 1.32-.82 1.73-.55.4-1.32.61-2.33.61h-3.6Zm.93-3.9v3.12h2.71c.7 0 1.25-.14 1.63-.4.38-.28.57-.67.57-1.18 0-.47-.2-.84-.57-1.12a2.73 2.73 0 0 0-1.63-.41h-2.7Zm0-.77h2.37c1.47-.02 2.2-.52 2.2-1.5 0-.52-.2-.9-.6-1.13-.4-.24-1-.36-1.8-.36h-2.17v2.99ZM611.43 181c-.1-.27-.15-.66-.18-1.18-.33.43-.75.76-1.26 1-.5.22-1.04.34-1.6.34-.82 0-1.48-.23-1.98-.68a2.22 2.22 0 0 1-.75-1.72c0-.82.34-1.48 1.02-1.95a4.95 4.95 0 0 1 2.87-.72h1.7v-.97c0-.6-.2-1.07-.57-1.42-.37-.35-.91-.52-1.63-.52-.65 0-1.18.17-1.61.5-.43.33-.64.73-.64 1.2h-.94c0-.68.31-1.26.94-1.75a3.6 3.6 0 0 1 2.3-.74c.94 0 1.69.24 2.23.71s.83 1.13.84 1.97v4c0 .82.09 1.43.26 1.84v.09h-1Zm-2.94-.67c.63 0 1.18-.15 1.67-.46.5-.3.86-.7 1.08-1.2v-1.86h-1.67c-.93 0-1.66.18-2.19.51-.52.33-.79.78-.79 1.36 0 .47.18.87.53 1.18a2 2 0 0 0 1.37.47ZM615.67 172.55v7.66h3.76v-7.66h.94v7.66h3.72v-7.66h.94V181h-10.3v-8.45h.94ZM636.53 173.35h-4.27V181h-.94v-8.45h5.21v.8ZM637.34 176.65c0-.81.16-1.55.47-2.2a3.62 3.62 0 0 1 3.3-2.06c1.12 0 2.04.4 2.73 1.19.7.78 1.05 1.83 1.05 3.13v.2a5 5 0 0 1-.48 2.2 3.5 3.5 0 0 1-3.28 2.05 3.5 3.5 0 0 1-2.74-1.18 4.58 4.58 0 0 1-1.05-3.14v-.2Zm.94.26c0 1 .26 1.84.78 2.49.53.64 1.22.97 2.07.97a2.5 2.5 0 0 0 2.04-.97c.53-.65.8-1.5.8-2.57v-.18a4.3 4.3 0 0 0-.37-1.78 2.86 2.86 0 0 0-1-1.24c-.44-.3-.93-.44-1.5-.44a2.5 2.5 0 0 0-2.03.98c-.53.65-.79 1.5-.79 2.56v.18ZM653.63 176.86c0 1.32-.3 2.36-.88 3.14a2.79 2.79 0 0 1-2.34 1.16c-1.16 0-2.04-.41-2.66-1.22v4.31h-.93v-11.7h.87l.04 1.2a3 3 0 0 1 2.65-1.36c1.01 0 1.8.38 2.38 1.15.58.77.87 1.83.87 3.19v.13Zm-.94-.17c0-1.07-.22-1.92-.67-2.55a2.14 2.14 0 0 0-1.85-.94 2.6 2.6 0 0 0-1.47.42 2.6 2.6 0 0 0-.95 1.2v4.06c.22.48.54.85.96 1.1.42.26.91.39 1.48.39.78 0 1.4-.31 1.83-.94.45-.63.67-1.54.67-2.74ZM655.19 176.65c0-.81.15-1.55.47-2.2a3.6 3.6 0 0 1 3.3-2.06c1.12 0 2.03.4 2.73 1.19.7.78 1.04 1.83 1.04 3.13v.2a5 5 0 0 1-.47 2.2 3.51 3.51 0 0 1-3.3 2.05 3.5 3.5 0 0 1-2.73-1.18 4.58 4.58 0 0 1-1.04-3.14v-.2Zm.93.26c0 1 .26 1.84.79 2.49.52.64 1.21.97 2.06.97a2.5 2.5 0 0 0 2.05-.97c.52-.65.78-1.5.78-2.57v-.18a4.3 4.3 0 0 0-.35-1.78 2.86 2.86 0 0 0-1.01-1.24c-.44-.3-.93-.44-1.49-.44a2.5 2.5 0 0 0-2.04.98c-.52.65-.78 1.5-.78 2.56v.18ZM663.91 180.21l.42-.54c.65-.89 1.03-2.2 1.13-3.9l.15-3.22h5v7.66h.87v3.27h-.93V181h-6.35v2.48h-.9v-3.27h.61Zm1.08 0h4.67v-6.79h-3.16l-.1 2.2c-.1 2.01-.56 3.54-1.4 4.6ZM141.44 341v-11.38h3.36c1.22 0 2.14.26 2.77.76.63.5.95 1.24.95 2.22a2.52 2.52 0 0 1-1.8 2.47c.66.15 1.2.47 1.6.98.4.5.6 1.08.6 1.75 0 1-.32 1.79-.97 2.36-.65.56-1.55.84-2.7.84h-3.81Zm.96-5.47v4.66h2.88c.82 0 1.47-.21 1.95-.63.49-.42.73-1 .73-1.75 0-.7-.23-1.25-.7-1.66a2.76 2.76 0 0 0-1.9-.62h-2.96Zm0-.8h2.62c.8-.02 1.42-.2 1.86-.57.45-.36.67-.89.67-1.58 0-.73-.23-1.27-.7-1.61-.44-.35-1.13-.53-2.05-.53h-2.4v4.29ZM156.37 341c-.1-.27-.16-.66-.18-1.18a3.3 3.3 0 0 1-1.26 1c-.5.22-1.04.34-1.61.34-.81 0-1.47-.23-1.98-.68a2.22 2.22 0 0 1-.75-1.72c0-.82.34-1.48 1.03-1.95a4.96 4.96 0 0 1 2.86-.72h1.7v-.96c0-.6-.19-1.08-.56-1.43-.37-.35-.91-.52-1.63-.52-.65 0-1.19.17-1.62.5-.42.33-.64.73-.64 1.2h-.93c0-.68.3-1.26.93-1.75a3.6 3.6 0 0 1 2.3-.74c.95 0 1.7.24 2.24.71.54.47.82 1.13.84 1.97v4c0 .82.08 1.43.26 1.84v.09h-1Zm-2.94-.67c.63 0 1.18-.15 1.67-.45.5-.3.86-.71 1.08-1.22v-1.86h-1.67c-.93.01-1.66.19-2.19.52s-.79.78-.79 1.36c0 .47.18.87.53 1.18a2 2 0 0 0 1.37.47ZM160.6 332.55v7.66h3.77v-7.66h.94v7.66h3.72v-7.66h.94V341h-10.3v-8.45h.94ZM179.48 341.16a3.63 3.63 0 0 1-3.3-2 4.64 4.64 0 0 1-.5-2.14v-.34c0-.81.16-1.55.48-2.2.31-.65.75-1.16 1.32-1.53a3.23 3.23 0 0 1 1.83-.56c1.02 0 1.83.35 2.43 1.06.6.7.9 1.65.9 2.86v.53h-6.02v.18c0 .95.27 1.75.82 2.4.55.63 1.24.95 2.08.95.5 0 .94-.1 1.32-.28.38-.18.73-.47 1.04-.87l.59.44c-.69 1-1.69 1.5-3 1.5Zm-.17-7.97c-.7 0-1.3.25-1.79.77a3.6 3.6 0 0 0-.87 2.08h5.07v-.1a3.1 3.1 0 0 0-.7-1.99 2.15 2.15 0 0 0-1.72-.76ZM187.38 336.38h-3.75v-.8h3.75v.8ZM189.9 332.55l.03 1.37c.31-.5.7-.9 1.17-1.15.47-.25 1-.38 1.56-.38 1.34 0 2.18.55 2.54 1.64.3-.52.7-.93 1.21-1.21.5-.29 1.07-.43 1.68-.43 1.8 0 2.73.99 2.77 2.97V341h-.94v-5.57c0-.76-.17-1.31-.49-1.68-.32-.37-.84-.55-1.56-.55-.68.01-1.24.23-1.7.66a2.3 2.3 0 0 0-.78 1.55V341h-.94v-5.64c0-.73-.17-1.26-.51-1.62-.34-.36-.85-.54-1.55-.54-.59 0-1.1.17-1.51.51-.43.33-.74.83-.94 1.5V341H189v-8.45h.9ZM208.57 341c-.1-.27-.15-.66-.18-1.18a3.3 3.3 0 0 1-1.26 1c-.5.22-1.04.34-1.6.34-.82 0-1.48-.23-1.98-.68a2.22 2.22 0 0 1-.75-1.72c0-.82.34-1.48 1.02-1.95a4.96 4.96 0 0 1 2.87-.72h1.7v-.96c0-.6-.2-1.08-.57-1.43-.37-.35-.91-.52-1.63-.52-.65 0-1.19.17-1.61.5-.43.33-.64.73-.64 1.2H203c0-.68.31-1.26.94-1.75a3.6 3.6 0 0 1 2.3-.74c.94 0 1.69.24 2.23.71.55.47.83 1.13.84 1.97v4c0 .82.09 1.43.26 1.84v.09h-1Zm-2.94-.67c.63 0 1.19-.15 1.68-.45.49-.3.85-.71 1.07-1.22v-1.86h-1.67c-.93.01-1.66.19-2.19.52-.52.33-.79.78-.79 1.36 0 .47.18.87.53 1.18a2 2 0 0 0 1.37.47ZM212.86 341h-.94v-8.45h.94V341Zm-1.1-10.9c0-.18.06-.32.17-.44a.6.6 0 0 1 .47-.2c.2 0 .35.07.47.2a.6.6 0 0 1 .18.44.62.62 0 0 1-.65.63.62.62 0 0 1-.47-.18.62.62 0 0 1-.17-.45ZM216.45 341h-.93v-12h.93v12ZM228.23 341c-.1-.27-.16-.66-.18-1.18-.33.43-.75.76-1.26 1-.5.22-1.04.34-1.61.34-.81 0-1.47-.23-1.98-.68a2.22 2.22 0 0 1-.75-1.72c0-.82.34-1.48 1.03-1.95a4.95 4.95 0 0 1 2.86-.72h1.7v-.96c0-.6-.19-1.08-.56-1.43-.37-.35-.91-.52-1.63-.52-.65 0-1.19.17-1.62.5-.42.33-.64.73-.64 1.2h-.93c0-.68.3-1.26.93-1.75a3.6 3.6 0 0 1 2.3-.74c.95 0 1.7.24 2.24.71.54.47.82 1.13.84 1.97v4c0 .82.09 1.43.26 1.84v.09h-1Zm-2.94-.67c.62 0 1.18-.15 1.67-.45.5-.3.85-.71 1.08-1.22v-1.86h-1.67c-.94.01-1.66.19-2.19.52s-.79.78-.79 1.36c0 .47.18.87.52 1.18a2 2 0 0 0 1.38.47ZM231.27 340.21l.42-.54c.65-.89 1.03-2.2 1.13-3.9l.15-3.22h5v7.66h.87v3.27h-.93V341h-6.35v2.48h-.9v-3.27h.61Zm1.08 0h4.67v-6.79h-3.16l-.1 2.2c-.1 2.01-.56 3.54-1.4 4.6ZM247.44 336.86a5.1 5.1 0 0 1-.88 3.14 2.79 2.79 0 0 1-2.34 1.16c-1.16 0-2.04-.41-2.66-1.22v4.31h-.93v-11.7h.87l.05 1.2a3 3 0 0 1 2.64-1.36c1.02 0 1.8.38 2.38 1.15.58.76.87 1.83.87 3.19v.13Zm-.94-.17c0-1.07-.22-1.92-.66-2.55a2.14 2.14 0 0 0-1.86-.94c-.57 0-1.06.14-1.47.42a2.6 2.6 0 0 0-.95 1.2v4.06a2.49 2.49 0 0 0 2.44 1.49c.79 0 1.4-.31 1.84-.94.44-.63.66-1.54.66-2.74ZM252.79 341.16a3.63 3.63 0 0 1-3.3-2A4.64 4.64 0 0 1 249 337v-.34a5 5 0 0 1 .47-2.2c.32-.65.76-1.16 1.32-1.53a3.23 3.23 0 0 1 1.83-.56c1.02 0 1.84.35 2.44 1.06.6.7.9 1.65.9 2.86v.53h-6.03v.18c0 .95.27 1.75.82 2.4.55.63 1.25.95 2.08.95.5 0 .94-.1 1.32-.28.38-.18.73-.47 1.04-.87l.6.44c-.7 1-1.7 1.5-3 1.5Zm-.17-7.97c-.7 0-1.3.25-1.78.77s-.78 1.2-.88 2.08h5.07v-.1a3.1 3.1 0 0 0-.7-1.99 2.16 2.16 0 0 0-1.71-.76ZM260.9 340.37c.66 0 1.2-.19 1.64-.55.44-.37.68-.85.72-1.43h.9c-.03.52-.2.99-.49 1.42-.3.42-.7.75-1.19.99s-1.01.36-1.57.36c-1.11 0-2-.39-2.64-1.16a4.69 4.69 0 0 1-.97-3.1v-.3c0-.82.14-1.56.43-2.2.3-.64.71-1.14 1.25-1.49a3.48 3.48 0 0 1 1.92-.52c.93 0 1.69.28 2.29.83a3 3 0 0 1 .97 2.18h-.9a2.29 2.29 0 0 0-.72-1.6 2.3 2.3 0 0 0-1.64-.61c-.84 0-1.5.3-1.97.91-.46.61-.7 1.46-.7 2.56v.28c0 1.08.24 1.92.7 2.52.47.6 1.13.9 1.98.9ZM141.44 261v-11.38h3.36c1.22 0 2.14.26 2.77.76.63.5.95 1.24.95 2.22a2.52 2.52 0 0 1-1.8 2.47c.66.15 1.2.47 1.6.98.4.5.6 1.08.6 1.75 0 1-.32 1.79-.97 2.36-.65.56-1.55.84-2.7.84h-3.81Zm.96-5.47v4.66h2.88c.82 0 1.47-.21 1.95-.63.49-.42.73-1 .73-1.75 0-.7-.23-1.25-.7-1.66a2.76 2.76 0 0 0-1.9-.62h-2.96Zm0-.8h2.62c.8-.02 1.42-.2 1.86-.57.45-.36.67-.89.67-1.58 0-.73-.23-1.27-.7-1.61-.44-.35-1.13-.53-2.05-.53h-2.4v4.29ZM156.37 261c-.1-.27-.16-.66-.18-1.18a3.3 3.3 0 0 1-1.26 1c-.5.22-1.04.34-1.61.34-.81 0-1.47-.23-1.98-.68a2.22 2.22 0 0 1-.75-1.72c0-.82.34-1.48 1.03-1.95a4.96 4.96 0 0 1 2.86-.72h1.7v-.96c0-.6-.19-1.08-.56-1.43-.37-.35-.91-.52-1.63-.52-.65 0-1.19.17-1.62.5-.42.33-.64.73-.64 1.2h-.93c0-.68.3-1.26.93-1.75a3.6 3.6 0 0 1 2.3-.74c.95 0 1.7.24 2.24.71.54.47.82 1.13.84 1.97v4c0 .82.08 1.43.26 1.84v.09h-1Zm-2.94-.67c.63 0 1.18-.15 1.67-.45.5-.3.86-.71 1.08-1.22v-1.86h-1.67c-.93.01-1.66.19-2.19.52s-.79.78-.79 1.36c0 .47.18.87.53 1.18a2 2 0 0 0 1.37.47ZM160.6 252.55v7.66h3.77v-7.66h.94v7.66h3.72v-7.66h.94V261h-10.3v-8.45h.94ZM176 260.21l.42-.54c.66-.89 1.04-2.2 1.14-3.9l.14-3.22h5v7.66h.87v3.27h-.93V261h-6.35v2.48h-.9v-3.27h.62Zm1.09 0h4.67v-6.79h-3.17l-.1 2.2c-.1 2.01-.56 3.54-1.4 4.6ZM188.65 261.16a3.63 3.63 0 0 1-3.3-2 4.64 4.64 0 0 1-.5-2.14v-.34c0-.81.17-1.55.48-2.2.32-.65.76-1.16 1.32-1.53a3.23 3.23 0 0 1 1.83-.56c1.02 0 1.84.35 2.43 1.06.6.7.91 1.65.91 2.86v.53h-6.03v.18c0 .95.27 1.75.82 2.4.55.63 1.24.95 2.08.95.5 0 .94-.1 1.32-.28.38-.18.73-.47 1.05-.87l.58.44c-.69 1-1.68 1.5-3 1.5Zm-.17-7.97c-.7 0-1.3.25-1.78.77s-.78 1.2-.88 2.08h5.07v-.1a3.1 3.1 0 0 0-.7-1.99 2.15 2.15 0 0 0-1.71-.76ZM200.13 261h-.94v-3.88h-4.55V261h-.94v-8.45h.94v3.79h4.56v-3.8h.93V261ZM203.67 255.62h2.44c.62 0 1.17.11 1.64.34.47.22.83.54 1.07.94.25.4.37.87.37 1.4a2.5 2.5 0 0 1-.85 1.97c-.55.49-1.3.73-2.26.73h-3.34v-8.45h.93v3.07Zm0 .8v3.8h2.42c.68 0 1.2-.18 1.58-.52.39-.33.58-.8.58-1.39 0-.56-.19-1.01-.56-1.36a2.18 2.18 0 0 0-1.53-.54h-2.49ZM221.9 256.86c0 1.32-.3 2.36-.88 3.14a2.8 2.8 0 0 1-2.35 1.16c-1.15 0-2.04-.41-2.65-1.22v4.31h-.93v-11.7h.86l.05 1.2a3 3 0 0 1 2.65-1.36c1 0 1.8.38 2.37 1.15.58.77.87 1.83.87 3.19v.13Zm-.95-.17c0-1.07-.22-1.92-.66-2.55a2.14 2.14 0 0 0-1.85-.94c-.57 0-1.07.14-1.48.42a2.6 2.6 0 0 0-.94 1.2v4.06c.22.48.54.85.96 1.1.41.26.9.39 1.47.39.79 0 1.4-.31 1.84-.94.44-.63.66-1.54.66-2.74ZM223.45 256.65a5 5 0 0 1 .47-2.2 3.6 3.6 0 0 1 3.3-2.06c1.12 0 2.03.4 2.73 1.19.7.78 1.05 1.83 1.05 3.13v.2a5 5 0 0 1-.48 2.2 3.5 3.5 0 0 1-3.29 2.05 3.5 3.5 0 0 1-2.73-1.18 4.58 4.58 0 0 1-1.05-3.14v-.2Zm.94.26c0 1 .26 1.84.78 2.49.53.64 1.22.97 2.06.97a2.5 2.5 0 0 0 2.05-.97c.53-.65.79-1.5.79-2.57v-.18a4.3 4.3 0 0 0-.36-1.77 2.86 2.86 0 0 0-1-1.25c-.44-.3-.93-.44-1.5-.44a2.5 2.5 0 0 0-2.03.98c-.53.65-.79 1.5-.79 2.56v.18ZM239.23 257.1h-1.13v3.9h-.94v-3.9h-1.11l-3.13 3.9h-1.19l3.5-4.34-3.1-4.11h1.13l2.77 3.7h1.13v-3.7h.94v3.7h1.14l2.78-3.7h1.14l-3.12 4.11 3.5 4.34h-1.19l-3.12-3.9ZM244.85 260.21l.42-.54c.65-.89 1.03-2.2 1.13-3.9l.15-3.22h4.99v7.66h.87v3.27h-.93V261h-6.35v2.48h-.9l.01-3.27h.61Zm1.08 0h4.67v-6.79h-3.16l-.1 2.2c-.1 2.01-.57 3.54-1.41 4.6ZM257.5 261.16a3.62 3.62 0 0 1-3.3-2 4.64 4.64 0 0 1-.5-2.14v-.34a5 5 0 0 1 .47-2.2c.32-.65.76-1.16 1.32-1.53a3.23 3.23 0 0 1 1.83-.56c1.03 0 1.84.35 2.44 1.06.6.7.9 1.65.9 2.86v.53h-6.03v.18c0 .95.28 1.75.82 2.4.56.63 1.25.95 2.08.95.5 0 .94-.1 1.32-.28.39-.18.74-.47 1.05-.87l.58.44c-.68 1-1.68 1.5-2.99 1.5Zm-.18-7.97c-.7 0-1.3.25-1.78.77s-.77 1.2-.88 2.08h5.07v-.1a3.1 3.1 0 0 0-.7-1.99 2.15 2.15 0 0 0-1.71-.76ZM268.98 261h-.94v-3.88h-4.56V261h-.93v-8.45h.93v3.79h4.56v-3.8h.94V261ZM277.04 252.55h.94V261h-.94v-6.94l-4.56 6.94h-.93v-8.45h.93v6.95l4.56-6.95ZM286.65 252.55V261h-.94v-3.4h-2.62l-2.07 3.4H280l2.13-3.52a2.37 2.37 0 0 1-1.35-.88 2.52 2.52 0 0 1-.48-1.53c0-.76.27-1.38.82-1.84a3.4 3.4 0 0 1 2.23-.68h3.3Zm-5.42 2.54c0 .5.15.9.46 1.22.32.31.76.48 1.33.49h2.7v-3.46h-2.4c-.65 0-1.16.16-1.54.47-.37.31-.55.74-.55 1.28Z" fill="#93ACD2"/><path d="M633 388c0-1.1.9-2 2-2h203a2 2 0 0 1 2 2v40a2 2 0 0 1-2 2H635a2 2 0 0 1-2-2v-40Z" fill="#4B75B4"/><path d="M662.69 409.4a4.2 4.2 0 0 1-1.34 2.78c-.74.65-1.74.98-2.98.98a4.02 4.02 0 0 1-3.23-1.45 5.82 5.82 0 0 1-1.21-3.87v-1.09c0-1.06.19-1.99.56-2.79a4.23 4.23 0 0 1 4.02-2.5c1.2 0 2.17.35 2.9 1.02.73.68 1.16 1.6 1.28 2.8h-1.51c-.13-.9-.41-1.56-.85-1.97-.43-.4-1.04-.6-1.82-.6a2.7 2.7 0 0 0-2.26 1.06c-.54.7-.81 1.71-.81 3.02v1.1a5 5 0 0 0 .77 2.95 2.5 2.5 0 0 0 2.16 1.09c.84 0 1.48-.19 1.92-.56.45-.38.74-1.04.89-1.98h1.5ZM664.13 408.7c0-.83.16-1.58.49-2.24.33-.66.78-1.17 1.36-1.53a3.71 3.71 0 0 1 1.99-.54c1.15 0 2.08.4 2.79 1.2a4.6 4.6 0 0 1 1.07 3.18v.1c0 .82-.16 1.56-.48 2.22a3.56 3.56 0 0 1-3.37 2.07c-1.14 0-2.07-.4-2.78-1.2a4.59 4.59 0 0 1-1.07-3.16v-.1Zm1.46.17c0 .94.21 1.69.64 2.25a2.1 2.1 0 0 0 1.75.86c.74 0 1.32-.29 1.75-.86.44-.58.65-1.39.65-2.43 0-.92-.22-1.67-.66-2.25a2.09 2.09 0 0 0-1.75-.86c-.72 0-1.29.28-1.73.85a3.93 3.93 0 0 0-.65 2.44ZM676.3 407.63l1.88-3.08h1.69l-2.77 4.18 2.85 4.27h-1.67l-1.95-3.16-1.96 3.16h-1.67l2.85-4.27-2.77-4.18h1.67l1.85 3.08ZM688.55 408.87c0 1.28-.3 2.32-.89 3.1a2.83 2.83 0 0 1-2.39 1.19 3.1 3.1 0 0 1-2.42-.98v4.07h-1.44v-11.7h1.32l.07.93c.59-.73 1.4-1.09 2.45-1.09 1.02 0 1.82.38 2.4 1.15.6.76.9 1.83.9 3.2v.13Zm-1.45-.17c0-.95-.2-1.7-.6-2.25-.41-.56-.97-.83-1.68-.83-.88 0-1.53.38-1.97 1.16v4.04c.43.77 1.1 1.16 1.99 1.16.69 0 1.24-.28 1.64-.82.42-.56.62-1.37.62-2.46ZM695.6 413a3.05 3.05 0 0 1-.2-.9 3.22 3.22 0 0 1-2.4 1.06c-.83 0-1.52-.24-2.05-.7a2.3 2.3 0 0 1-.8-1.8c0-.88.33-1.57 1-2.05a4.74 4.74 0 0 1 2.83-.74h1.4v-.66c0-.5-.15-.9-.45-1.2-.3-.3-.75-.45-1.34-.45-.51 0-.94.13-1.3.38-.34.27-.52.58-.52.95h-1.45c0-.42.15-.83.45-1.22.3-.4.7-.7 1.21-.94a4.13 4.13 0 0 1 1.7-.34c.97 0 1.74.25 2.29.74.55.48.84 1.15.86 2v3.9c0 .77.1 1.39.3 1.85v.12h-1.52Zm-2.39-1.1c.45 0 .88-.12 1.29-.35.4-.24.7-.54.88-.92v-1.73h-1.13c-1.77 0-2.66.52-2.66 1.55 0 .46.15.81.46 1.07.3.25.69.38 1.16.38ZM706 413h-1.45v-3.6h-3.88v3.6h-1.45v-8.45h1.45v3.66h3.88v-3.66H706V413ZM713.8 404.55h1.44V413h-1.44v-6.16l-3.9 6.16h-1.45v-8.45h1.45v6.17l3.9-6.17ZM723.84 405.72h-2.83V413h-1.45v-7.28h-2.78v-1.17h7.06v1.17ZM726.83 407.46h2.2c.95.01 1.71.26 2.27.75.55.5.83 1.16.83 2 0 .84-.28 1.51-.86 2.02-.57.51-1.34.77-2.3.77h-3.59v-8.45h1.45v2.91Zm0 1.18v3.18h2.15c.54 0 .96-.14 1.25-.41.3-.29.45-.67.45-1.15 0-.47-.15-.85-.44-1.15-.28-.3-.69-.46-1.2-.47h-2.21ZM743.38 404.55h1.44V413h-1.45v-6.16l-3.9 6.16h-1.44v-8.45h1.45v6.17l3.9-6.17ZM751.79 406.86c0-.4-.15-.7-.45-.94-.3-.23-.72-.35-1.25-.35-.5 0-.93.13-1.28.4-.34.26-.5.58-.5.94h-1.44c0-.74.3-1.34.92-1.8.61-.48 1.38-.71 2.3-.71 1 0 1.76.21 2.32.64.55.42.82 1.02.82 1.81 0 .38-.11.73-.34 1.05-.23.32-.55.57-.98.76.99.33 1.48.99 1.48 1.96 0 .78-.3 1.4-.9 1.85-.6.45-1.4.68-2.4.68-.97 0-1.77-.24-2.41-.71a2.3 2.3 0 0 1-.95-1.94h1.44c0 .41.18.77.55 1.06.37.3.83.44 1.37.44.56 0 1-.13 1.34-.38.34-.26.5-.59.5-1 0-.47-.14-.8-.42-1.01-.28-.2-.72-.31-1.32-.31h-1.45v-1.22h1.57c.99-.03 1.48-.43 1.48-1.22ZM760.13 411.09l2.88-6.54h1.8V413h-1.44v-6.15l-2.74 6.15h-1l-2.79-6.28V413h-1.44v-8.45h1.87l2.86 6.54ZM770.65 413.16a3.7 3.7 0 0 1-2.8-1.13 4.2 4.2 0 0 1-1.08-3.02v-.27c0-.84.16-1.58.48-2.24.32-.66.77-1.18 1.34-1.55.58-.37 1.2-.56 1.88-.56 1.1 0 1.95.36 2.56 1.09.61.72.92 1.76.92 3.1v.6h-5.73c.02.84.26 1.51.73 2.03.46.51 1.06.77 1.78.77.5 0 .94-.1 1.3-.32.35-.2.66-.48.92-.82l.89.68a3.55 3.55 0 0 1-3.2 1.64Zm-.18-7.58c-.59 0-1.07.21-1.47.64-.4.42-.64 1.01-.73 1.78h4.23v-.1a2.74 2.74 0 0 0-.6-1.71 1.8 1.8 0 0 0-1.43-.61ZM782.53 413h-1.44v-3.6h-3.89v3.6h-1.45v-8.45h1.45v3.66h3.89v-3.66h1.44V413ZM788.37 413.16a3.7 3.7 0 0 1-2.8-1.13 4.2 4.2 0 0 1-1.08-3.02v-.27c0-.84.16-1.58.48-2.24.32-.66.77-1.18 1.34-1.55.58-.37 1.2-.56 1.88-.56 1.1 0 1.95.36 2.56 1.09.6.72.91 1.76.91 3.1v.6h-5.72c.02.84.26 1.51.72 2.03.47.51 1.07.77 1.79.77.5 0 .94-.1 1.3-.32.35-.2.66-.48.92-.82l.88.68a3.55 3.55 0 0 1-3.18 1.64Zm-.18-7.58c-.59 0-1.08.21-1.47.64-.4.42-.64 1.01-.74 1.78h4.24v-.1a2.74 2.74 0 0 0-.6-1.71 1.8 1.8 0 0 0-1.43-.61ZM800.25 413h-1.45v-3.6h-3.88v3.6h-1.45v-8.45h1.45v3.66h3.88v-3.66h1.45V413ZM808.05 404.55h1.44V413h-1.44v-6.16l-3.9 6.16h-1.45v-8.45h1.45v6.17l3.9-6.17ZM818.27 404.55V413h-1.45v-3.29h-2.18l-2 3.29h-1.55l2.12-3.5c-.54-.2-.96-.51-1.25-.92a2.5 2.5 0 0 1-.43-1.45c0-.78.29-1.4.87-1.86a3.58 3.58 0 0 1 2.32-.72h3.55Zm-5.29 2.6c0 .4.14.74.43 1 .28.24.65.37 1.11.37h2.3v-2.8h-2.08c-.53 0-.96.13-1.28.4-.32.26-.48.6-.48 1.02Z" fill="#fff"/><path fill-rule="evenodd" clip-rule="evenodd" d="M612 387H502a1 1 0 0 0-1 1v40a1 1 0 0 0 1 1h110a1 1 0 0 0 1-1v-40a1 1 0 0 0-1-1Zm-110-1a2 2 0 0 0-2 2v40c0 1.1.9 2 2 2h110a2 2 0 0 0 2-2v-40a2 2 0 0 0-2-2H502Z" fill="#4B75B4"/><path d="M530.07 407.68c0 1.11-.19 2.09-.56 2.92-.38.83-.9 1.46-1.6 1.9-.68.44-1.49.66-2.4.66-.9 0-1.7-.22-2.38-.66a4.41 4.41 0 0 1-1.62-1.88 6.82 6.82 0 0 1-.59-2.84v-.82c0-1.1.2-2.06.57-2.9.38-.84.92-1.48 1.61-1.92.7-.45 1.5-.67 2.4-.67a4.21 4.21 0 0 1 4.02 2.58c.36.83.55 1.8.55 2.91v.72Zm-1.5-.74c0-1.34-.26-2.38-.8-3.1a2.68 2.68 0 0 0-2.28-1.08c-.95 0-1.7.36-2.24 1.08a5 5 0 0 0-.84 3v.84c0 1.3.28 2.34.82 3.09a2.68 2.68 0 0 0 2.28 1.11c.97 0 1.72-.35 2.25-1.05.53-.71.8-1.72.82-3.04v-.85ZM538.38 405.72h-2.84V413h-1.45v-7.28h-2.78v-1.17h7.07v1.17ZM544.65 411.09l2.87-6.54h1.8V413h-1.44v-6.15l-2.73 6.15h-1l-2.8-6.28V413h-1.44v-8.45h1.88l2.86 6.54ZM555.16 413.16a3.7 3.7 0 0 1-2.8-1.13 4.2 4.2 0 0 1-1.07-3.02v-.27c0-.84.16-1.58.48-2.24.32-.66.77-1.18 1.34-1.55.58-.37 1.2-.56 1.87-.56 1.1 0 1.96.36 2.57 1.09.6.72.91 1.76.91 3.1v.6h-5.73c.02.84.27 1.51.73 2.03.47.51 1.06.77 1.78.77.51 0 .94-.1 1.3-.32.35-.2.66-.48.93-.82l.88.68a3.55 3.55 0 0 1-3.19 1.64Zm-.18-7.58c-.58 0-1.07.21-1.46.64-.4.42-.64 1.01-.74 1.78h4.24v-.1a2.74 2.74 0 0 0-.6-1.71 1.8 1.8 0 0 0-1.44-.61ZM567.05 413h-1.45v-3.6h-3.88v3.6h-1.45v-8.45h1.45v3.66h3.88v-3.66h1.45V413ZM574.84 404.55h1.45V413h-1.45v-6.16l-3.9 6.16h-1.44v-8.45h1.45v6.17l3.9-6.17ZM584.9 405.72h-2.85V413h-1.44v-7.28h-2.78v-1.17h7.06v1.17ZM587.88 407.46h2.19c.96.01 1.72.26 2.27.75.56.5.84 1.16.84 2 0 .84-.29 1.51-.86 2.02-.57.51-1.34.77-2.31.77h-3.58v-8.45h1.45v2.91Zm0 1.18v3.18h2.14c.55 0 .96-.14 1.26-.41.3-.29.45-.67.45-1.15 0-.47-.15-.85-.44-1.15-.29-.3-.7-.46-1.21-.47h-2.2Z" fill="#4B75B4"/><path d="M521.44 261v-11.38h3.36c1.22 0 2.14.26 2.77.76.63.5.95 1.24.95 2.22a2.52 2.52 0 0 1-1.8 2.47c.66.15 1.2.47 1.6.98.4.5.6 1.08.6 1.75 0 1-.32 1.79-.97 2.36-.65.56-1.55.84-2.7.84h-3.81Zm.96-5.47v4.66h2.88c.82 0 1.48-.21 1.95-.63.49-.42.73-1 .73-1.75 0-.7-.23-1.25-.7-1.66a2.76 2.76 0 0 0-1.9-.62h-2.96Zm0-.8h2.62c.8-.02 1.43-.2 1.86-.57.45-.36.67-.89.67-1.58 0-.73-.23-1.27-.7-1.61-.44-.35-1.13-.53-2.05-.53h-2.4v4.29ZM536.37 261c-.1-.27-.16-.66-.18-1.18a3.3 3.3 0 0 1-1.26 1c-.5.22-1.04.34-1.61.34-.81 0-1.47-.23-1.98-.68a2.22 2.22 0 0 1-.75-1.72c0-.82.34-1.48 1.03-1.95a4.96 4.96 0 0 1 2.86-.72h1.7v-.96c0-.6-.19-1.08-.56-1.43-.37-.35-.91-.52-1.63-.52-.65 0-1.19.17-1.62.5-.42.33-.64.73-.64 1.2h-.93c0-.68.3-1.26.93-1.75a3.6 3.6 0 0 1 2.3-.74c.95 0 1.7.24 2.24.71.54.47.82 1.13.84 1.97v4c0 .82.09 1.43.26 1.84v.09h-1Zm-2.94-.67c.63 0 1.18-.15 1.67-.45.5-.3.86-.71 1.08-1.22v-1.86h-1.67c-.93.01-1.66.19-2.19.52s-.79.78-.79 1.36c0 .47.18.87.52 1.18a2 2 0 0 0 1.38.47ZM540.6 252.55v7.66h3.77v-7.66h.93v7.66h3.73v-7.66h.94V261h-10.3v-8.45h.94ZM557.87 252.55h.93V261h-.93v-6.94L553.3 261h-.92v-8.45h.92v6.95l4.57-6.95ZM570.76 252.55h.94V261h-.94v-6.94L566.2 261h-.93v-8.45h.93v6.95l4.56-6.95ZM580.7 261h-.94v-3.88h-4.56V261h-.93v-8.45h.93v3.79h4.56v-3.8h.94V261ZM589.27 253.34h-3.07V261h-.94v-7.66h-2.96v-.8h6.97v.8ZM593.46 261.16a3.63 3.63 0 0 1-3.3-2 4.64 4.64 0 0 1-.49-2.14v-.34a5 5 0 0 1 .47-2.2c.32-.65.76-1.16 1.32-1.53a3.23 3.23 0 0 1 1.83-.56c1.03 0 1.84.35 2.44 1.06.6.7.9 1.65.9 2.86v.53h-6.03v.18c0 .95.27 1.75.82 2.4.55.63 1.25.95 2.08.95.5 0 .94-.1 1.32-.28.39-.18.73-.47 1.05-.87l.58.44c-.68 1-1.68 1.5-2.99 1.5Zm-.17-7.97c-.7 0-1.3.25-1.78.77s-.77 1.2-.88 2.08h5.07v-.1a3.1 3.1 0 0 0-.7-1.99 2.16 2.16 0 0 0-1.71-.76ZM605.25 256.86c0 1.32-.3 2.36-.88 3.14a2.79 2.79 0 0 1-2.34 1.16c-1.15 0-2.04-.41-2.65-1.22v4.31h-.93v-11.7h.86l.05 1.2a3 3 0 0 1 2.65-1.36c1 0 1.8.38 2.37 1.15.58.77.87 1.83.87 3.19v.13Zm-.94-.17c0-1.07-.22-1.92-.66-2.55a2.14 2.14 0 0 0-1.85-.94 2.6 2.6 0 0 0-1.48.42 2.6 2.6 0 0 0-.95 1.2v4.06c.23.48.55.85.97 1.1.41.26.9.39 1.47.39.79 0 1.4-.31 1.84-.94.44-.63.66-1.54.66-2.74ZM610.6 261.16a3.63 3.63 0 0 1-3.3-2 4.64 4.64 0 0 1-.49-2.14v-.34c0-.81.16-1.55.47-2.2.32-.65.76-1.16 1.32-1.53a3.23 3.23 0 0 1 1.83-.56c1.03 0 1.84.35 2.44 1.06.6.7.9 1.65.9 2.86v.53h-6.03v.18c0 .95.28 1.75.82 2.4.56.63 1.25.95 2.08.95.5 0 .94-.1 1.32-.28.39-.18.74-.47 1.05-.87l.58.44c-.68 1-1.68 1.5-2.99 1.5Zm-.17-7.97c-.7 0-1.3.25-1.78.77a3.6 3.6 0 0 0-.88 2.08h5.07v-.1a3.1 3.1 0 0 0-.7-1.99 2.15 2.15 0 0 0-1.71-.76ZM618.72 260.37c.65 0 1.2-.19 1.63-.55.44-.37.68-.85.72-1.43h.9c-.03.52-.19.99-.49 1.42-.3.42-.69.75-1.18.99-.5.24-1.02.36-1.58.36a3.28 3.28 0 0 1-2.64-1.16 4.69 4.69 0 0 1-.97-3.1v-.3c0-.82.14-1.56.44-2.2.29-.64.7-1.14 1.25-1.49a3.48 3.48 0 0 1 1.91-.52c.93 0 1.7.28 2.29.83.6.55.93 1.28.97 2.18h-.9a2.29 2.29 0 0 0-.72-1.6 2.3 2.3 0 0 0-1.64-.61c-.84 0-1.5.3-1.97.91-.46.61-.7 1.47-.7 2.56v.28c0 1.08.24 1.92.7 2.52.47.6 1.13.9 1.98.9ZM624.88 255.62h2.43c.63 0 1.17.11 1.64.34.48.22.83.54 1.07.94.25.4.37.87.37 1.4a2.5 2.5 0 0 1-.84 1.97c-.56.49-1.32.73-2.27.73h-3.33v-8.45h.92v3.07Zm0 .8v3.8h2.42c.67 0 1.2-.18 1.58-.52.38-.33.57-.8.57-1.39 0-.56-.18-1.01-.56-1.36a2.18 2.18 0 0 0-1.52-.54h-2.5Zm8.38 4.58h-.94v-8.45h.94V261ZM645.3 252.55h.94V261h-.94v-6.94l-4.56 6.94h-.93v-8.45h.93v6.95l4.56-6.95ZM655.32 259.66l2.47-7.11h1l-3.6 9.89-.19.44c-.46 1.02-1.18 1.53-2.15 1.53-.22 0-.46-.03-.72-.1v-.78l.48.05c.46 0 .83-.12 1.1-.35.3-.22.54-.6.74-1.16l.4-1.14-3.18-8.38h1.03l2.62 7.1ZM660.35 261v-8.45h3.1c1.08 0 1.9.19 2.47.57.58.38.86.94.86 1.69 0 .42-.13.8-.38 1.13-.26.33-.63.56-1.12.72.55.1 1 .34 1.33.7.34.38.5.8.5 1.3 0 .74-.27 1.32-.82 1.73-.55.4-1.32.61-2.33.61h-3.6Zm.93-3.9v3.12H664c.7 0 1.25-.14 1.63-.4.38-.28.57-.67.57-1.18 0-.47-.2-.84-.57-1.12a2.73 2.73 0 0 0-1.63-.41h-2.7Zm0-.77h2.37c1.47-.02 2.2-.52 2.2-1.5 0-.52-.2-.9-.6-1.13-.4-.24-1-.36-1.8-.36h-2.17v2.99ZM675.7 252.55V261h-.93v-7.65h-3.47l-.14 3.17a13.3 13.3 0 0 1-.36 2.68 2.7 2.7 0 0 1-.76 1.36 2 2 0 0 1-1.35.44h-.36v-.83l.29-.01c.53-.01.92-.28 1.15-.79.24-.5.4-1.42.46-2.73l.18-4.1h5.3ZM681.5 261.16a3.62 3.62 0 0 1-3.3-2 4.64 4.64 0 0 1-.5-2.14v-.34a5 5 0 0 1 .47-2.2c.32-.65.76-1.16 1.32-1.53a3.23 3.23 0 0 1 1.83-.56c1.03 0 1.84.35 2.44 1.06.6.7.9 1.65.9 2.86v.53h-6.03v.18c0 .95.28 1.75.82 2.4.55.63 1.25.95 2.08.95.5 0 .94-.1 1.32-.28.39-.18.74-.47 1.05-.87l.58.44c-.68 1-1.68 1.5-2.99 1.5Zm-.18-7.97c-.7 0-1.3.25-1.78.77s-.77 1.2-.88 2.08h5.07v-.1a3.1 3.1 0 0 0-.7-1.99 2.15 2.15 0 0 0-1.71-.76ZM692.5 261h-.94v-3.56c-.77.29-1.5.43-2.2.43-1.13 0-1.94-.25-2.45-.74-.5-.5-.76-1.26-.78-2.3v-2.28h.92v2.23c.02.8.2 1.4.54 1.75.34.36.93.53 1.76.53.76-.02 1.5-.15 2.21-.4v-4.11h.94V261ZM698.27 261.16a3.63 3.63 0 0 1-3.3-2 4.64 4.64 0 0 1-.49-2.14v-.34c0-.81.16-1.55.47-2.2.32-.65.76-1.16 1.32-1.53a3.23 3.23 0 0 1 1.83-.56c1.03 0 1.84.35 2.44 1.06.6.7.9 1.65.9 2.86v.53h-6.03v.18c0 .95.28 1.75.82 2.4.56.63 1.25.95 2.08.95.5 0 .94-.1 1.32-.28.39-.18.74-.47 1.05-.87l.59.44c-.7 1-1.69 1.5-3 1.5Zm-.17-7.97c-.7 0-1.3.25-1.78.77s-.77 1.2-.88 2.08h5.08v-.1a3.1 3.1 0 0 0-.7-1.99 2.15 2.15 0 0 0-1.72-.76ZM709.76 261h-.94v-3.88h-4.55V261h-.94v-8.45h.94v3.79h4.55v-3.8h.94V261ZM717.82 252.55h.94V261h-.94v-6.94l-4.56 6.94h-.93v-8.45h.93v6.95l4.56-6.95ZM727.43 252.55V261h-.94v-3.4h-2.62l-2.07 3.4h-1.03l2.13-3.52a2.37 2.37 0 0 1-1.35-.88 2.52 2.52 0 0 1-.48-1.53c0-.76.27-1.38.82-1.84a3.4 3.4 0 0 1 2.24-.68h3.3Zm-5.42 2.54c0 .5.15.9.47 1.22.31.31.75.48 1.32.49h2.7v-3.46h-2.4c-.65 0-1.16.16-1.54.47-.37.31-.55.74-.55 1.28ZM815 179l-5-5h10l-5 5ZM423 250c0-1.1.9-2 2-2h13a2 2 0 0 1 2 2h-17Z" fill="#93ACD2"/><path d="M426 247a1 1 0 0 1 2 0v2h-2v-2ZM435 247a1 1 0 0 1 2 0v2h-2v-2Z" fill="#93ACD2"/><path fill-rule="evenodd" clip-rule="evenodd" d="M438 263h-13a1 1 0 0 1-1-1v-11h15v11a1 1 0 0 1-1 1Zm-13 1a2 2 0 0 1-2-2v-12h17v12a2 2 0 0 1-2 2h-13Z" fill="#93ACD2"/><path d="M426 257a1 1 0 0 1 1-1h1a1 1 0 0 1 0 2h-1a1 1 0 0 1-1-1ZM426 260a1 1 0 0 1 1-1h1a1 1 0 0 1 0 2h-1a1 1 0 0 1-1-1ZM430 254a1 1 0 0 1 1-1h1a1 1 0 0 1 0 2h-1a1 1 0 0 1-1-1ZM426 254a1 1 0 0 1 1-1h1a1 1 0 0 1 0 2h-1a1 1 0 0 1-1-1ZM430 257a1 1 0 0 1 1-1h1a1 1 0 0 1 0 2h-1a1 1 0 0 1-1-1ZM430 260a1 1 0 0 1 1-1h1a1 1 0 0 1 0 2h-1a1 1 0 0 1-1-1ZM434 254a1 1 0 0 1 1-1h1a1 1 0 0 1 0 2h-1a1 1 0 0 1-1-1ZM434 257a1 1 0 0 1 1-1h1a1 1 0 0 1 0 2h-1a1 1 0 0 1-1-1Z" fill="#93ACD2"/><rect x=".5" y=".5" width="959" height="479" rx="3.5" stroke="#D5D5D5"/></svg>